<svg xmlns="http://www.w3.org/2000/svg" width="19.993" height="17.576" viewBox="0 0 19.993 17.576">
  <g id="CEO_Talks" data-name="CEO Talks" transform="translate(-927.274 -540.314)">
    <g id="Path_7870" data-name="Path 7870" transform="translate(936.222 552.97)">
      <path id="Path_40859" data-name="Path 40859" d="M941.27,558.861h1.758a.879.879,0,0,1,.879.879h0a.879.879,0,0,1-.879.879H941.27a.879.879,0,0,1-.879-.879h0a.879.879,0,0,1,.879-.879Z" transform="translate(-940.391 -558.861)" fill="#00c569"/>
    </g>
    <g id="Group_22868" data-name="Group 22868" transform="translate(927.269 540.314)">
      <g id="Path_7869" data-name="Path 7869">
        <path id="Path_40858" data-name="Path 40858" d="M943.724,555.12l-.448-2.135a4.217,4.217,0,0,0-1.916-2.729l-2.7-1.674a3.889,3.889,0,0,0,.756-1.919l.214-2.022a3.91,3.91,0,0,0-3.886-4.327h-.432a3.913,3.913,0,0,0-3.914,3.911h0a4.015,4.015,0,0,0,.022.416l.218,2.022a3.9,3.9,0,0,0,.756,1.919l-2.707,1.674a4.215,4.215,0,0,0-1.916,2.729l-.448,2.135a2.3,2.3,0,0,0,1.772,2.72h0a2.292,2.292,0,0,0,.478.05h11.919a2.267,2.267,0,0,0,2.242-2.771ZM933.7,542.769a2.133,2.133,0,0,1,1.6-.7h.432a2.153,2.153,0,0,1,2.153,2.153h0a1.922,1.922,0,0,1-.013.234l-.214,2.018a2.153,2.153,0,0,1-4.284,0l-.214-2.018a2.11,2.11,0,0,1,.538-1.676Zm8.2,13.149a.519.519,0,0,1-.418.2H929.559a.521.521,0,0,1-.418-.2.538.538,0,0,1-.119-.439l.449-2.135a2.5,2.5,0,0,1,1.132-1.6l3.207-1.99a3.89,3.89,0,0,0,3.408,0l3.208,1.99a2.5,2.5,0,0,1,1.122,1.6l.448,2.135a.538.538,0,0,1-.109.449Z" transform="translate(-927.269 -540.314)" fill="#15232e"/>
      </g>
      <g id="Group_22867" data-name="Group 22867" transform="translate(13.901 0.086)">
        <g id="Group_22843" data-name="Group 22843" transform="translate(1.73 1.339)">
          <path id="Path_40860" data-name="Path 40860" d="M950.793,549.389a.615.615,0,0,1-.491-.986,4.246,4.246,0,0,0,0-5.016.614.614,0,1,1,.982-.737,5.452,5.452,0,0,1,0,6.494.612.612,0,0,1-.492.246Z" transform="translate(-950.178 -542.403)" fill="#15232e"/>
        </g>
        <g id="Group_22844" data-name="Group 22844" transform="translate(0 2.722)">
          <path id="Path_40861" data-name="Path 40861" d="M948.262,548.646a.614.614,0,0,1-.491-.987,1.883,1.883,0,0,0,0-2.242.616.616,0,0,1,.987-.737,3.12,3.12,0,0,1,0,3.716.615.615,0,0,1-.5.25Z" transform="translate(-947.646 -544.432)" fill="#15232e"/>
        </g>
        <g id="Group_22845" data-name="Group 22845" transform="translate(3.456)">
          <path id="Path_40862" data-name="Path 40862" d="M953.323,550.114a.614.614,0,0,1-.49-.987,6.529,6.529,0,0,0,0-7.727.614.614,0,0,1,.982-.737c3.433,4.574.037,9.159,0,9.2a.613.613,0,0,1-.488.246Z" transform="translate(-952.708 -540.435)" fill="#15232e"/>
        </g>
      </g>
    </g>
  </g>
</svg>
