<svg xmlns="http://www.w3.org/2000/svg" width="21.283" height="22.094" viewBox="0 0 21.283 22.094">
  <g id="challenge" transform="translate(-401.986 -679.325)">
    <path id="Path_91676" data-name="Path 91676" d="M421.854,681.729h-1.622a.88.88,0,0,0-.015-.1,2.792,2.792,0,0,0-2.459-2.288,2.614,2.614,0,0,0-.3-.015H407.8a2.8,2.8,0,0,0-2.746,2.31c-.007.033-.011.062-.015.095H403.4a1.473,1.473,0,0,0-1.415,1.521v6.38a2.879,2.879,0,0,0,2.765,2.975.912.912,0,0,0,0-1.819,1.12,1.12,0,0,1-1.073-1.156v-5.3a.768.768,0,0,1,.546-.753h.913l1.124,11.393a2.808,2.808,0,0,0,2.761,2.546h2.67v1.851h-3.456a.913.913,0,0,0-.913.913v.226a.914.914,0,0,0,.913.917H417.2a.917.917,0,0,0,.917-.917v-.226a.917.917,0,0,0-.917-.913h-3.456v-1.851h2.474A2.8,2.8,0,0,0,419,694.966l1.143-11.393h.9a.772.772,0,0,1,.542.753v5.3a1.121,1.121,0,0,1-1.073,1.156.912.912,0,0,0,0,1.819,2.879,2.879,0,0,0,2.765-2.975v-6.38A1.473,1.473,0,0,0,421.854,681.729Zm-3.4.506-1.244,12.553a.993.993,0,0,1-.989.906h-7.2a1,1,0,0,1-.971-.906l-1.241-12.553a1.017,1.017,0,0,1,.251-.775.978.978,0,0,1,.72-.331h9.68a1,1,0,0,1,1,1C418.46,682.162,418.457,682.2,418.453,682.235Z" fill="#15232e"/>
    <path id="Path_91677" data-name="Path 91677" d="M418.529,688.191h0a.9.9,0,0,1,.9-.905l6.389-.006a.9.9,0,0,1,.895.9h0a.9.9,0,0,1-.9.905l-6.389.006A.9.9,0,0,1,418.529,688.191Z" transform="translate(-9.991 -3.905)" fill="#00c569"/>
  </g>
</svg>
