<svg id="current-score-vector.cfb49f55" xmlns="http://www.w3.org/2000/svg" xmlns:xlink="http://www.w3.org/1999/xlink" width="196.815" height="154" viewBox="0 0 196.815 154">
  <defs>
    <linearGradient id="linear-gradient" y1="0.5" x2="1" y2="0.5" gradientUnits="objectBoundingBox">
      <stop offset="0" stop-color="gray" stop-opacity="0.251"/>
      <stop offset="0.54" stop-color="gray" stop-opacity="0.122"/>
      <stop offset="1" stop-color="gray" stop-opacity="0.102"/>
    </linearGradient>
  </defs>
  <ellipse id="Ellipse_3505" data-name="Ellipse 3505" cx="34.331" cy="6.504" rx="34.331" ry="6.504" transform="translate(34.709 138.009)" fill="#6c63ff" opacity="0.1"/>
  <path id="Path_22336" data-name="Path 22336" d="M209.577,76.751c-12.617-.437-24.634-4.511-36.109-8.968s-22.841-9.393-35.156-11.754c-7.921-1.519-16.981-1.735-23.361,2.507-6.143,4.094-8.128,11.142-9.194,17.686-.8,4.925-1.275,10.108.924,14.719,1.528,3.2,4.238,5.892,6.114,8.958,6.525,10.668,1.912,23.823-5.157,34.24-3.314,4.886-7.165,9.553-9.724,14.748s-3.743,11.169-1.5,16.483c2.219,5.264,7.508,9.21,13.237,11.988,11.637,5.644,25.344,7.258,38.72,8.174,29.6,2.024,59.356,1.148,89.034.269,10.984-.324,22.014-.653,32.819-2.351,6-.944,12.194-2.441,16.552-6.055a13.859,13.859,0,0,0,3.193-18.105c-6.215-9.65-23.395-12.046-27.744-22.4-2.39-5.7.064-12.048,3.54-17.333,7.455-11.34,19.95-21.289,20.607-34.25.452-8.9-5.554-17.817-14.842-22.03-9.734-4.416-23.235-3.86-30.413,3.449C233.714,74.243,220.719,77.139,209.577,76.751Z" transform="translate(-95.226 -55.033)" fill="#6c63ff" opacity="0.1"/>
  <path id="Path_22337" data-name="Path 22337" d="M378.966,202.929l-5.971-4.026h0l3.012-4.484-15.772-1.257-5.667,4.383-7.094-3.977-5.917.712-.07-1.56a44.015,44.015,0,0,0-.489-4.854c.025-.487.043-1.047.041-1.655,0-2.564-.347-5.962-1.872-8.227l.351-3.154-2.846-3.363a21.514,21.514,0,0,1,1.56-2.624c.1-.14.195-.277.3-.409a7.079,7.079,0,0,0,6.609-7.018,4.483,4.483,0,0,0-.02-.513,1.853,1.853,0,0,0-.021-.207c.361.195.725.39,1.09.585.068.1.146.195.232.31h0l.018.021.109.135.035.041c.039.047.08.092.121.138l.027.031c.1.115.212.232.329.347a.349.349,0,0,1,.039.037l.146.136.041.037c.125.111.257.218.39.32l.043.031.168.115.055.035c.064.039.131.08.195.117l.023.014c.076.041.154.08.232.117l.039.016.195.082.06.021c.068.023.135.045.2.064l.043.012c.086.021.172.039.259.053h.01a2.119,2.119,0,0,0,.25.025h.057a2.129,2.129,0,0,0,.224,0h.049a2.308,2.308,0,0,0,.279-.033,3.076,3.076,0,0,0,1.228-.441,1.072,1.072,0,0,0,.25-.232.919.919,0,0,0-.039-1.07h0c-.152-.363-1.139-.618-1.139-.618s-3.119-1.3-3.119-2.339-.78-6.418-8.829-7.648c0,0-5.236-.294-6.708,2.509l-.031.328c-.433.271-.792.815-1.218.975a1.99,1.99,0,0,0-.528.195v-.037h0a.5.5,0,0,0-.119.154,1.56,1.56,0,0,0-.162.585,2.2,2.2,0,0,1-.255.708,1.579,1.579,0,0,1-.117.179h0l-.033.053a1.423,1.423,0,0,0,.663-.107,3.3,3.3,0,0,1-.195.78.647.647,0,0,0,.6-.359V157.1l.025-.035a1.645,1.645,0,0,0,.121-.283l-.021.023c.039-.127.074-.255.117-.38a.6.6,0,0,1,.1-.195.472.472,0,0,1,.4-.135l-.08,1.69H331a2.3,2.3,0,0,1-.172.355c-.277.448-.78.754-.965,1.246a1.833,1.833,0,0,0-.09.737c0,.146.018.294.029.441v-.012a1.644,1.644,0,0,1-.175,1.074c-.144.214-.376.376-.456.62a.605.605,0,0,0-.029.211,2.365,2.365,0,0,0,.133.626.027.027,0,0,0,0-.012.951.951,0,0,1,.033.46c-.088.39-.561.715-.538,1.088a.419.419,0,0,0,.021.144.79.79,0,0,0,.441.39,1.715,1.715,0,0,0,.99.218,1.3,1.3,0,0,0,.37-.127c-.136.314-.277.624-.419.918-.021.047-.045.094-.068.14,0,0-1.2-.805-1.889.836a3.641,3.641,0,0,0-.423,1.1,2.617,2.617,0,0,1-.144.452,2.91,2.91,0,0,1-1.3,1.17c-1.4.639-7.034,7.671-7.133,9.492a10.624,10.624,0,0,1-.359,2.1,12.506,12.506,0,0,0-.335,4.969,9.508,9.508,0,0,0,.345,1.585,35.514,35.514,0,0,1,1,5.213l.647,5.892a16.76,16.76,0,0,0,.105,2.435c-.661.754-3.314,3.9-2.3,4.755a3.741,3.741,0,0,0,2.911.425,24.774,24.774,0,0,0-1.8,6.279c-.195,2.821.333,6.558,1.17,7.993s3.624,5.116,3.624,5.116-.131,5.049.866,6.884a20.068,20.068,0,0,1,1.4,5.64s.93,3.213.464,4.394.864,2.164-.532,2.95-3.182,18.493-3.182,18.493-.719,11.606,0,12.2a.732.732,0,0,0,.123.072v3.9s-.5.819,1.53.985c1.39.111,5.33.363,7.668.509l1.811.113s4.289.854,6.184,0,5.254-.834,4.755-3.09a6.414,6.414,0,0,0-.265-.9c-.548-1.4-1.478-1.56-3.191-1.95-.1-.021-.195-.041-.283-.057-1.805-.314-2.4.526-3.41-.567-.879-.945-3.679-2-4.632-2.339.023-.07.053-.138.076-.211a1.427,1.427,0,0,1-.723-.353l2.583.164,1.538.1s3.646.727,5.264,0,4.464-.708,4.039-2.624a5.491,5.491,0,0,0-.224-.768c-.466-1.189-1.257-1.32-2.714-1.649-.084-.018-.162-.035-.24-.049-1.534-.267-2.037.446-2.9-.482a13.33,13.33,0,0,0-3.9-1.981c0-.433-.585-1.049-.953-1.667-.433-.721.367-3.246.367-3.246L336.2,250.1a2.024,2.024,0,0,1,.546-.156s2.063-1.969,1.6-4.067a13.482,13.482,0,0,1-.148-1.916,9.847,9.847,0,0,0,1.877-2.133c.433-.934,0-5.459,0-5.459v-17.3l3.451.349,3.131.322.953.1,3.131.316,7.2.727,6.484-1.228,2.805-.53,5.769-1.092V203.916Zm-47.493-46.771-.4-.043C331.2,156.121,331.344,156.146,331.473,156.158Z" transform="translate(-274.641 -132.407)" fill="url(#linear-gradient)"/>
  <path id="Path_22338" data-name="Path 22338" d="M496.121,434.613c-1.95,2.79-8.958,1.312-8.958,1.312l-5.431-5.082-.731-.688,1.226-2.6s.39.107,1.059.3C486.8,428.868,497.766,432.268,496.121,434.613Z" transform="translate(-405.792 -354.926)" fill="#efb7b9"/>
  <path id="Path_22339" data-name="Path 22339" d="M483.281,427.848a11.436,11.436,0,0,1-1.55,2.994l-.731-.688,1.226-2.6S482.62,427.657,483.281,427.848Z" transform="translate(-405.792 -354.926)" opacity="0.1"/>
  <path id="Path_22340" data-name="Path 22340" d="M377.455,278.082s-5.006,2.221-4.761,7.673a89.908,89.908,0,0,0,1.146,10.481s-1.024,8.206,3.238,10.321,8.206,3.854,8.206,3.854,6.667.717,7.5,1.014,3.418-4.234,2.94-4.94-6.6-2.185-7.377-3.363a6.51,6.51,0,0,0-2.583-1.9s-1.862-1.127-1.989-2.144a4.629,4.629,0,0,1,.489-2.223c.125-.446.441-4.757.441-4.757S386.8,276.75,377.455,278.082Z" transform="translate(-318.593 -234.532)" fill="#dce6f2"/>
  <path id="Path_22341" data-name="Path 22341" d="M388.3,370.39s-6.868,1.15-6.2,3.554A14.561,14.561,0,0,1,388.3,370.39Z" transform="translate(-326.13 -308.91)" opacity="0.1"/>
  <path id="Path_22342" data-name="Path 22342" d="M401.432,375.38s-3.776,3.082-3.037,3.24S401.432,375.38,401.432,375.38Z" transform="translate(-339.213 -312.927)" opacity="0.1"/>
  <path id="Path_22343" data-name="Path 22343" d="M421.235,380.89s-1.012,2.072-.39,1.932S421.235,380.89,421.235,380.89Z" transform="translate(-357.202 -317.363)" opacity="0.1"/>
  <path id="Path_22344" data-name="Path 22344" d="M397.375,308.575l-.417-.119a1.192,1.192,0,0,0,.055-.852c-.478-.706-6.593-2.184-7.371-3.363a6.475,6.475,0,0,0-2.583-1.9s-1.862-1.127-1.989-2.145a4.629,4.629,0,0,1,.489-2.222c.125-.446.441-4.759.441-4.759s2.1-15.341-7.252-14.009c0,0-5.006,2.222-4.763,7.675a89.656,89.656,0,0,0,1.148,10.481s-1.023,8.206,3.238,10.321,8.206,3.854,8.206,3.854,6.665.715,7.5,1.014c.314.113.881-.47,1.437-1.271l.316.294,5.431,5.081s7.009,1.48,8.958-1.31C411.862,312.993,400.894,309.593,397.375,308.575Z" transform="translate(-319.632 -235.433)" opacity="0.1"/>
  <path id="Path_22345" data-name="Path 22345" d="M377.524,168.81a1.657,1.657,0,0,0-.54.209c-.195.162-.195.439-.244.68a2.237,2.237,0,0,1-.39.932,1.4,1.4,0,0,0,.649-.107,3.339,3.339,0,0,1-.2.78.632.632,0,0,0,.585-.357,3.758,3.758,0,0,0,.244-.684.563.563,0,0,1,.094-.195c.179-.213.513-.117.79-.09a1.3,1.3,0,0,0,1.185-.569c.294-.446.312-1.589-.39-1.71C378.578,167.578,378.122,168.588,377.524,168.81Z" transform="translate(-321.544 -145.726)" fill="#965d7b"/>
  <g id="Group_9089" data-name="Group 9089" transform="translate(54.836 23.242)" opacity="0.1">
    <path id="Path_22346" data-name="Path 22346" d="M378.228,174.54c.018-.1.029-.195.051-.29h0a1.143,1.143,0,0,0-.244.68,2.145,2.145,0,0,1-.115.411A2.234,2.234,0,0,0,378.228,174.54Z" transform="translate(-377.643 -174.25)"/>
    <path id="Path_22347" data-name="Path 22347" d="M377.147,180.78a3.243,3.243,0,0,0,.195-.78,1.4,1.4,0,0,1-.618.107,2.256,2.256,0,0,1-.224.39,1.388,1.388,0,0,0,.647-.105,3.242,3.242,0,0,1-.195.78.634.634,0,0,0,.585-.357,1.454,1.454,0,0,0,.117-.279A.585.585,0,0,1,377.147,180.78Z" transform="translate(-376.5 -178.879)"/>
    <path id="Path_22348" data-name="Path 22348" d="M384.752,175.228c-.277-.027-.612-.123-.792.09a.6.6,0,0,0-.094.195c-.018.051-.033.1-.047.156.185-.146.485-.068.737-.043a1.3,1.3,0,0,0,1.185-.569,1.081,1.081,0,0,0,.131-.306A1.3,1.3,0,0,1,384.752,175.228Z" transform="translate(-382.393 -174.653)"/>
  </g>
  <path id="Path_22349" data-name="Path 22349" d="M313.078,201l2.973,3.575-.388,3.609-3.593-5.624Z" transform="translate(-251.23 -161.815)" fill="#dce6f2"/>
  <path id="Path_22350" data-name="Path 22350" d="M316.049,204.575l-.365,3.394-.023.214-3.242-5.077-.349-.548.1-.158.9-1.4.2.242Z" transform="translate(-251.23 -161.815)" opacity="0.1"/>
  <path id="Path_22351" data-name="Path 22351" d="M384.775,209.5a5.961,5.961,0,0,0-2.8,2.482,21.181,21.181,0,0,0-1.513,2.6c-.275.55-.517,1.078-.717,1.538l-.14.328c-.339.8-.528,1.337-.528,1.337s-7.7-5.79-6.482-6.18c.409-.131.947-1.008,1.48-2.113l.066-.14c.337-.71.669-1.5.963-2.246.6-1.53,1.049-2.86,1.049-2.86S387.845,208.627,384.775,209.5Z" transform="translate(-318.412 -175.16)" fill="#efb7b9"/>
  <path id="Path_22352" data-name="Path 22352" d="M459.26,202.58s1.778,3.217,4.166,2.778,1.406-1.727,1.406-1.727Z" transform="translate(-388.29 -173.815)" fill="#444053"/>
  <path id="Path_22353" data-name="Path 22353" d="M382.452,742.381c-1.575.719-5.137,0-5.137,0l-1.5-.094c-1.95-.125-5.213-.335-6.367-.429-1.684-.138-1.271-.829-1.271-.829v-4.17l8.172-2.07s3.23,1.105,4.116,2.07c.84.92,1.332.213,2.831.478.074.014.152.029.234.049,1.423.326,2.2.454,2.651,1.634a5.473,5.473,0,0,1,.22.76C386.82,741.68,384.025,741.666,382.452,742.381Z" transform="translate(-314.926 -602.268)" fill="#a36468"/>
  <path id="Path_22354" data-name="Path 22354" d="M386.179,749.542a6.11,6.11,0,0,1-.92.472c-1.072.489-2.092,1.086-3.176,1.548a7.428,7.428,0,0,1-3.425.7,5.106,5.106,0,0,0-1.829-.019,4.223,4.223,0,0,0-1.016.563c-1.95-.125-5.213-.335-6.367-.429-1.684-.138-1.271-.828-1.271-.828v-.487c.06,0,.129-.018.207-.023a3.682,3.682,0,0,1,1.189.177c.846.23,1.688.456,2.534.682a2,2,0,0,1,.975-1.244,3.108,3.108,0,0,1,1.571-.361c1.312.018,2.554.639,3.864.7a2.128,2.128,0,0,0,1.07-.179c.179-.09.337-.22.513-.32a3.743,3.743,0,0,1,.883-.3,19.456,19.456,0,0,0,2.525-.815c.234-.092.507-.257.476-.507-.041-.331-.561-.37-.7-.675a.39.39,0,0,1,.016-.345c.074.014.152.029.234.049C384.951,748.234,385.723,748.363,386.179,749.542Z" transform="translate(-314.926 -612.79)" opacity="0.1"/>
  <path id="Path_22355" data-name="Path 22355" d="M363.477,783.635c-1.852.846-6.044,0-6.044,0l-1.764-.1c-2.285-.146-6.133-.39-7.492-.505-1.983-.164-1.5-.975-1.5-.975v-4.915L356.3,774.7s3.8,1.3,4.843,2.437c.988,1.082,1.56.25,3.332.561.088.016.179.035.275.057,1.675.39,2.583.536,3.119,1.924a6.252,6.252,0,0,1,.259.895C368.61,782.808,365.329,782.791,363.477,783.635Z" transform="translate(-297.616 -634.398)" fill="#a36468"/>
  <path id="Path_22356" data-name="Path 22356" d="M367.863,792.1a7.269,7.269,0,0,1-1.082.556c-1.261.575-2.462,1.277-3.737,1.821a8.761,8.761,0,0,1-4.032.828,5.88,5.88,0,0,0-2.145-.023,4.972,4.972,0,0,0-1.2.671c-2.285-.146-6.133-.39-7.492-.505-1.983-.164-1.5-.975-1.5-.975V793.9q.121-.02.244-.027a4.279,4.279,0,0,1,1.4.209l2.981.8a2.359,2.359,0,0,1,1.156-1.464,3.638,3.638,0,0,1,1.85-.425c1.544.021,3,.753,4.546.827a2.517,2.517,0,0,0,1.256-.208c.212-.107.39-.261.6-.376a4.24,4.24,0,0,1,1.039-.351,23.351,23.351,0,0,0,2.956-.959c.275-.109.6-.3.56-.6-.049-.39-.661-.437-.823-.8a.47.47,0,0,1,.02-.406c.088.016.179.035.275.057C366.419,790.561,367.327,790.713,367.863,792.1Z" transform="translate(-297.616 -646.82)" opacity="0.1"/>
  <path id="Path_22357" data-name="Path 22357" d="M385.169,647.54l-.521,12.249s-.78,2.5-.357,3.217,1.137,1.429.877,1.852-3.379,5-4.386,3.242-2-9.358-2-9.358l.93-9.391Z" transform="translate(-323.5 -532.028)" fill="#444053"/>
  <path id="Path_22358" data-name="Path 22358" d="M411.054,491l1.447,1.934v16.821s.423,4.484,0,5.41a14.521,14.521,0,0,1-2.568,2.778l-1.8-9.26.39-9.8Z" transform="translate(-347.128 -406.006)" fill="#444053"/>
  <path id="Path_22359" data-name="Path 22359" d="M385.169,647.54l-.521,12.249s-.78,2.5-.357,3.217,1.137,1.429.877,1.852-3.379,5-4.386,3.242-2-9.358-2-9.358l.93-9.391Z" transform="translate(-323.5 -532.028)" opacity="0.1"/>
  <path id="Path_22360" data-name="Path 22360" d="M411.054,491l1.447,1.934v16.821s.423,4.484,0,5.41a14.521,14.521,0,0,1-2.568,2.778l-1.8-9.26.39-9.8Z" transform="translate(-347.128 -406.006)" opacity="0.1"/>
  <path id="Path_22361" data-name="Path 22361" d="M347.188,434.879v9.1l-1.624,7.083s-.521,17.092-.066,19.17-1.56,4.03-1.56,4.03-1.17.131-1.17,1.039-1.95,3.509-1.95,3.509l.064,5.069s.846,9.488-.454,11.307.454,2.08.454,2.08c-1.624,5.328-9.422,4.094-10.126,3.509s0-12.087,0-12.087,1.743-17.546,3.108-18.326.066-1.755.521-2.924-.454-4.353-.454-4.353a20.062,20.062,0,0,0-1.365-5.589c-.975-1.819-.846-6.823-.846-6.823s-2.729-3.64-3.54-5.069-1.333-5.133-1.139-7.929a24.913,24.913,0,0,1,1.755-6.223c.3-.758.521-1.25.521-1.25l.185.049,10.648,2.788Z" transform="translate(-281.815 -357.06)" fill="#444053"/>
  <path id="Path_22362" data-name="Path 22362" d="M395.667,209.448a5.961,5.961,0,0,0-2.8,2.482h-.218a6.964,6.964,0,0,1-6.044-3.5,6.86,6.86,0,0,1-.612-1.394c.6-1.53,1.049-2.86,1.049-2.86S398.738,208.57,395.667,209.448Z" transform="translate(-329.304 -175.103)" opacity="0.1"/>
  <path id="Path_22363" data-name="Path 22363" d="M398.319,177.4a6.97,6.97,0,1,1-13.039-3.416,6.813,6.813,0,0,1,.737-1.064,7.054,7.054,0,0,1,1.6-1.408,6.97,6.97,0,0,1,10.689,5.377C398.313,177.059,398.319,177.228,398.319,177.4Z" transform="translate(-328.008 -147.927)" fill="#efb7b9"/>
  <path id="Path_22364" data-name="Path 22364" d="M382.866,242.4l-.023.214-3.242-5.069c-.339.8-.528,1.337-.528,1.337s-7.7-5.8-6.482-6.188c.409-.131.947-1.008,1.48-2.113l.066-.14c.565,1.684,3.85,5.051,5.217,6.4.158.156.289.285.39.378l.209.195.109.109C380.558,238.035,382.656,240.3,382.866,242.4Z" transform="translate(-318.412 -196.244)" opacity="0.1"/>
  <path id="Path_22365" data-name="Path 22365" d="M343.449,259.363l-.355,11.418-.062,2.033s-4.2-.39-8.126-.819a52.925,52.925,0,0,1-6.593-.936,12.409,12.409,0,0,0-2.827-.622c-.764-.1-1.365-.158-1.365-.158s-.224.066-.569.129a3.616,3.616,0,0,1-2.844-.421c-.984-.856,1.6-3.965,2.248-4.712l.142-.162-.244-2.252-.634-5.839a35.625,35.625,0,0,0-.975-5.166,9.531,9.531,0,0,1-.337-1.569,12.571,12.571,0,0,1,.328-4.925,10.741,10.741,0,0,0,.351-2.084c.1-1.8,5.6-8.773,6.97-9.407a2.893,2.893,0,0,0,1.4-1.392,2.658,2.658,0,0,0,.212-.606c.585-2.534,2.065-1.528,2.065-1.528.357,1.983,5.88,7.231,5.88,7.231l.109.109c.548.561,2.989,3.2,2.815,5.447a6.6,6.6,0,0,0,.368,2.464,41.671,41.671,0,0,1,1.92,10.917Z" transform="translate(-276.571 -196.01)" fill="#dce6f2"/>
  <path id="Path_22366" data-name="Path 22366" d="M387.558,310.45s-1.365,3.314-2.388,3.85S388.045,315.431,387.558,310.45Z" transform="translate(-328.505 -260.655)" opacity="0.1"/>
  <path id="Path_22367" data-name="Path 22367" d="M390.5,342.2s-3.119.39-3.119.975S390.5,342.2,390.5,342.2Z" transform="translate(-330.423 -286.216)" opacity="0.1"/>
  <path id="Path_22368" data-name="Path 22368" d="M395.552,361.7s-4.533,9.65-5.8,9.943S395.552,361.7,395.552,361.7Z" transform="translate(-332.21 -301.914)" opacity="0.1"/>
  <path id="Path_22369" data-name="Path 22369" d="M376.274,239.637l-3.749,1.63L368,234.431a2.659,2.659,0,0,0,.213-.606c.585-2.534,2.065-1.528,2.065-1.528.357,1.983,5.88,7.231,5.88,7.231Z" transform="translate(-314.822 -197.58)" opacity="0.1"/>
  <path id="Path_22370" data-name="Path 22370" d="M377.274,237.637l-3.749,1.63L369,232.431a2.659,2.659,0,0,0,.213-.606c.585-2.534,2.065-1.528,2.065-1.528.357,1.983,5.88,7.231,5.88,7.231Z" transform="translate(-315.627 -195.97)" fill="#dce6f2"/>
  <path id="Path_22371" data-name="Path 22371" d="M351.4,322.473s-4.2-.39-8.126-.819l7.038,1.842v2.145c-.308.279-.575.423-.749.349-.811-.341-7.43-1.413-7.43-1.413s-3.844-1.95-7.993-4.289a3.205,3.205,0,0,1-.292-.183,4.61,4.61,0,0,1-1.228-1.23,8.731,8.731,0,0,1-1.3-3.932,17,17,0,0,1-.1-2.414,19.783,19.783,0,0,1,.25-2.727,89.674,89.674,0,0,1-.585-10.528c.049-5.459,5.166-7.408,5.166-7.408,9.407-.829,6.49,14.378,6.49,14.378s-.544,4.289-.692,4.728a4.628,4.628,0,0,0-.608,2.193c.072,1.024,1.87,2.248,1.87,2.248a6.564,6.564,0,0,1,2.478,2.041c.526.9,3.946,2.117,5.878,2.987Z" transform="translate(-284.936 -245.667)" opacity="0.1"/>
  <path id="Path_22372" data-name="Path 22372" d="M397.562,169.324a2.207,2.207,0,0,1-.195.932,5.762,5.762,0,0,1-.347.694,3.2,3.2,0,0,1-.854,1.061,4.368,4.368,0,0,1-1.56.542,2.257,2.257,0,0,0-1.41.8,2.8,2.8,0,0,0-.329.955,2.055,2.055,0,0,1-.39.924.766.766,0,0,1-.912.218.922.922,0,0,1-.353-.454,6.515,6.515,0,0,1-.368-1.6,3.4,3.4,0,0,0-.548-1.53,1.37,1.37,0,0,0-1.439-.552,1.386,1.386,0,0,0-.78.756,4.336,4.336,0,0,0-.294,1.076q-.363,1.985-.856,3.946a.363.363,0,0,1-.064.148.281.281,0,0,1-.195.082c-.437.059-.856-.248-1.3-.214a.742.742,0,0,0-.135.021,6.966,6.966,0,0,1,.7-7.954l.035-.01a2.1,2.1,0,0,0,.78-.491,8.223,8.223,0,0,0,.78-.9l.156-.195a8.89,8.89,0,0,1,1.521-1.445,1.56,1.56,0,0,1,.519-.281,1.536,1.536,0,0,1,.491-.016,12.4,12.4,0,0,0,2.029.076,13.019,13.019,0,0,1,1.425-.144,4.387,4.387,0,0,1,3.067,1.862A2.884,2.884,0,0,1,397.562,169.324Z" transform="translate(-327.951 -144.181)" opacity="0.1"/>
  <path id="Path_22373" data-name="Path 22373" d="M376.024,169.641c-.271.445-.76.747-.944,1.234-.269.708.185,1.589-.232,2.221-.138.212-.367.37-.444.614-.133.411.23.85.136,1.273s-.651.78-.5,1.193a.78.78,0,0,0,.429.39,1.677,1.677,0,0,0,.975.216c.532-.088.928-.61,1.468-.649.439-.031.858.273,1.295.216a.292.292,0,0,0,.195-.084.337.337,0,0,0,.064-.148q.491-1.959.858-3.946a4.251,4.251,0,0,1,.292-1.076,1.4,1.4,0,0,1,.78-.756,1.375,1.375,0,0,1,1.439.552,3.376,3.376,0,0,1,.55,1.53,6.6,6.6,0,0,0,.367,1.6.932.932,0,0,0,.355.456.764.764,0,0,0,.91-.218,2.033,2.033,0,0,0,.39-.926,2.784,2.784,0,0,1,.329-.953,2.262,2.262,0,0,1,1.41-.8,4.411,4.411,0,0,0,1.56-.544,3.209,3.209,0,0,0,.854-1.059,3.117,3.117,0,0,0,.534-1.628,2.988,2.988,0,0,0-.8-1.686,4.382,4.382,0,0,0-3.069-1.86,12.121,12.121,0,0,0-1.425.144,12.2,12.2,0,0,1-2.03-.078,1.6,1.6,0,0,0-.491.018,1.469,1.469,0,0,0-.517.281,8.9,8.9,0,0,0-1.523,1.443,11.173,11.173,0,0,1-.94,1.092,2.115,2.115,0,0,1-.78.493c-.195.055-.39.016-.575.076C376.367,168.45,376.291,169.2,376.024,169.641Z" transform="translate(-319.662 -143.401)" fill="#965d7b"/>
  <path id="Path_22374" data-name="Path 22374" d="M463.426,205.356c-1.56.287-2.852-.975-3.568-1.895a7.649,7.649,0,0,1-.6-.881l5.353,1.01.216.041S465.814,204.919,463.426,205.356Z" transform="translate(-388.29 -173.815)" opacity="0.1"/>
  <g id="Group_9090" data-name="Group 9090" transform="translate(54.341 24.753)" opacity="0.1">
    <path id="Path_22375" data-name="Path 22375" d="M376.034,211.079a1.624,1.624,0,0,0-.113-.749c0,.019-.018.039-.023.058a1.451,1.451,0,0,0,.1.8A.584.584,0,0,0,376.034,211.079Z" transform="translate(-375.497 -204.807)"/>
    <path id="Path_22376" data-name="Path 22376" d="M379.051,197.8a4.338,4.338,0,0,0,.016.809A4.344,4.344,0,0,0,379.051,197.8Z" transform="translate(-378.049 -194.72)"/>
    <path id="Path_22377" data-name="Path 22377" d="M388.5,183.257a3.2,3.2,0,0,1-.854,1.061,4.355,4.355,0,0,1-1.56.542,2.252,2.252,0,0,0-1.41.8,2.809,2.809,0,0,0-.329.955,2.041,2.041,0,0,1-.39.926.761.761,0,0,1-.91.218.932.932,0,0,1-.355-.456,6.49,6.49,0,0,1-.367-1.6,3.368,3.368,0,0,0-.55-1.53,1.37,1.37,0,0,0-1.439-.552,1.392,1.392,0,0,0-.78.756,4.25,4.25,0,0,0-.292,1.076q-.365,1.987-.858,3.946a.337.337,0,0,1-.064.148.292.292,0,0,1-.195.084c-.437.057-.856-.248-1.294-.216-.54.039-.936.561-1.468.647a1.647,1.647,0,0,1-.975-.216,1.043,1.043,0,0,1-.357-.253.526.526,0,0,0-.072.454.76.76,0,0,0,.429.39,1.647,1.647,0,0,0,.975.216c.532-.086.928-.608,1.468-.647.439-.031.858.273,1.294.216a.292.292,0,0,0,.195-.084.337.337,0,0,0,.064-.148q.491-1.95.858-3.946a4.251,4.251,0,0,1,.292-1.076,1.392,1.392,0,0,1,.78-.756,1.372,1.372,0,0,1,1.439.552,3.377,3.377,0,0,1,.55,1.53,6.6,6.6,0,0,0,.367,1.6.931.931,0,0,0,.355.456.764.764,0,0,0,.91-.218,2.041,2.041,0,0,0,.39-.926,2.809,2.809,0,0,1,.329-.955,2.271,2.271,0,0,1,1.41-.8,4.447,4.447,0,0,0,1.56-.542,3.2,3.2,0,0,0,.854-1.061,3.1,3.1,0,0,0,.534-1.626,2.088,2.088,0,0,0-.023-.222,3.831,3.831,0,0,1-.511,1.257Z" transform="translate(-373.964 -182)"/>
  </g>
  <path id="Path_22378" data-name="Path 22378" d="M401.127,174a6.887,6.887,0,0,1,.868,2.9c-1.737-.975-3.371-2.045-4.2-2.417-1.437-.649-6.81-.552-8.829-.491a6.811,6.811,0,0,1,.737-1.064,7.053,7.053,0,0,1,1.608-1.408A6.973,6.973,0,0,1,401.137,174Z" transform="translate(-331.703 -147.934)" opacity="0.1"/>
  <path id="Path_22379" data-name="Path 22379" d="M463.914,204.53c-.938.289-2.468-.269-4.055-1.068a7.649,7.649,0,0,1-.6-.881l5.353,1.01C464.968,203.832,465.058,204.177,463.914,204.53Z" transform="translate(-388.29 -173.815)" opacity="0.1"/>
  <path id="Path_22380" data-name="Path 22380" d="M392.3,154.043s-5.118-.292-6.556,2.486l-.232,2.462-.39-.043-.078,1.675s7.822-.341,9.6.462,7.311,4.85,9.527,4.168-.195-1.316-.195-1.316-3.051-1.293-3.051-2.306S400.167,155.262,392.3,154.043Z" transform="translate(-328.539 -134.734)" fill="#444053"/>
  <path id="Path_22381" data-name="Path 22381" d="M371.63,622.28s3.266,3.168,4.679,2.924C376.309,625.2,372.312,624.863,371.63,622.28Z" transform="translate(-317.744 -511.693)" opacity="0.1"/>
  <path id="Path_22382" data-name="Path 22382" d="M368.13,629.81s.292,1.63,1.072,1.47S368.13,629.81,368.13,629.81Z" transform="translate(-314.926 -517.755)" opacity="0.1"/>
  <path id="Path_22383" data-name="Path 22383" d="M378.1,769.53s-4.636,3.607-3.854,3.7S378.1,769.53,378.1,769.53Z" transform="translate(-319.776 -630.236)" opacity="0.1"/>
  <path id="Path_22384" data-name="Path 22384" d="M330.96,337.243l15.011-2.443v14.212l-14.263-.747Z" transform="translate(-266.437 -269.53)" fill="#6c63ff"/>
  <path id="Path_22385" data-name="Path 22385" d="M330.96,337.243l15.011-2.443v14.212l-14.263-.747Z" transform="translate(-266.437 -269.53)" opacity="0.05"/>
  <path id="Path_22386" data-name="Path 22386" d="M407.96,334.8l18,1.347-1,12.368-17.006.5Z" transform="translate(-328.426 -269.53)" fill="#6c63ff"/>
  <path id="Path_22387" data-name="Path 22387" d="M407.96,334.8l18,1.347-1,12.368-17.006.5Z" transform="translate(-328.426 -269.53)" opacity="0.1"/>
  <path id="Path_22388" data-name="Path 22388" d="M413.495,312.55l-5.535,4.338,18,1.347L428.9,313.8Z" transform="translate(-328.426 -251.618)" fill="#6c63ff"/>
  <path id="Path_22389" data-name="Path 22389" d="M303.08,316.235l13.514-1.645,6.933,3.94-15.011,2.443Z" transform="translate(-243.992 -253.26)" fill="#6c63ff"/>
  <path id="Path_22390" data-name="Path 22390" d="M349.262,348.578v19.431l-7.032-.721-3.059-.312-.932-.1-3.057-.314-4.223-.433v-18.8l15.01,1.022Z" transform="translate(-266.437 -279.617)" fill="#6c63ff"/>
  <path id="Path_22391" data-name="Path 22391" d="M439.551,341.71v18.95l-5.636,1.082-2.741.526-6.334,1.216V344.053Z" transform="translate(-342.015 -275.093)" fill="#6c63ff"/>
  <path id="Path_22392" data-name="Path 22392" d="M439.551,341.71v18.95l-5.636,1.082-2.741.526-6.334,1.216V344.053Z" transform="translate(-342.015 -275.093)" opacity="0.05"/>
  <path id="Path_22393" data-name="Path 22393" d="M303.08,351.42l5.435-4.09,18.3,1.248-2.694,4.539Z" transform="translate(-243.992 -279.617)" fill="#6c63ff"/>
  <path id="Path_22394" data-name="Path 22394" d="M303.08,351.42l5.435-4.09,18.3,1.248-2.694,4.539Z" transform="translate(-243.992 -279.617)" fill="#fff" opacity="0.1"/>
  <path id="Path_22395" data-name="Path 22395" d="M439.551,341.71l-14.711,2.343,4.788,4.289,15.758-2.644Z" transform="translate(-342.015 -275.093)" fill="#6c63ff"/>
  <path id="Path_22396" data-name="Path 22396" d="M439.551,341.71l-14.711,2.343,4.788,4.289,15.758-2.644Z" transform="translate(-342.015 -275.093)" fill="#fff" opacity="0.1"/>
  <path id="Path_22397" data-name="Path 22397" d="M460.071,427.24l-2.741.526v-4.049l2.568-.647Z" transform="translate(-368.171 -340.591)" fill="#fff" opacity="0.1"/>
  <path id="Path_22398" data-name="Path 22398" d="M376.139,435.96v2.679l-3.059-.312V435.96Z" transform="translate(-300.346 -350.968)" fill="#fff" opacity="0.1"/>
  <path id="Path_22399" data-name="Path 22399" d="M355.677,440.29v1.425l-3.057-.314V440.29Z" transform="translate(-283.874 -354.454)" fill="#fff" opacity="0.1"/>
  <path id="Path_22400" data-name="Path 22400" d="M449.277,451.5c-2.1,2.681-9.017.829-9.017.829l-5.143-5.365-.7-.727,1.365-2.534s.39.129,1.041.355C440.273,445.26,451.042,449.243,449.277,451.5Z" transform="translate(-368.293 -367.928)" opacity="0.1"/>
  <path id="Path_22401" data-name="Path 22401" d="M448.277,449.5c-2.1,2.681-9.017.829-9.017.829l-5.143-5.365-.7-.727,1.365-2.534s.39.129,1.041.355C439.273,443.26,450.042,447.243,448.277,449.5Z" transform="translate(-367.488 -366.318)" fill="#efb7b9"/>
  <path id="Path_22402" data-name="Path 22402" d="M435.786,442.055a11.525,11.525,0,0,1-1.708,2.907l-.7-.727,1.365-2.534S435.137,441.829,435.786,442.055Z" transform="translate(-367.455 -366.318)" opacity="0.1"/>
  <path id="Path_22403" data-name="Path 22403" d="M337.044,287.862s-5.118,1.95-5.166,7.408a89.7,89.7,0,0,0,.585,10.528s-1.462,8.139,2.681,10.479,7.993,4.289,7.993,4.289,6.619,1.072,7.432,1.413,3.638-4.045,3.2-4.776-6.465-2.534-7.18-3.753a6.492,6.492,0,0,0-2.478-2.039s-1.8-1.226-1.87-2.25a4.606,4.606,0,0,1,.608-2.193c.15-.439.694-4.728.694-4.728S346.451,287.024,337.044,287.862Z" transform="translate(-285.741 -242.444)" fill="#dce6f2"/>
  <path id="Path_22404" data-name="Path 22404" d="M343.892,380.7s-6.921.78-6.385,3.217A14.56,14.56,0,0,1,343.892,380.7Z" transform="translate(-290.25 -317.21)" opacity="0.1"/>
  <path id="Path_22405" data-name="Path 22405" d="M356.772,385.7s-3.928,2.876-3.207,3.071S356.772,385.7,356.772,385.7Z" transform="translate(-303.129 -321.235)" opacity="0.1"/>
  <path id="Path_22406" data-name="Path 22406" d="M376.566,391.7s-1.121,2.016-.487,1.911S376.566,391.7,376.566,391.7Z" transform="translate(-321.169 -326.065)" opacity="0.1"/>
  <path id="Path_22407" data-name="Path 22407" d="M721.692,167.38s-7.408-.446-6.543,4.751a1.268,1.268,0,0,0,.659,1.335s.014-.39.76-.255a3.413,3.413,0,0,0,.805.039,1.671,1.671,0,0,0,.986-.407h0s2.084-.86,2.9-4.268c0,0,.6-.745.585-.936l-1.252.536a2.243,2.243,0,0,1,.09,1.653s-.039-1.62-.281-1.583c-.049,0-.649.314-.649.314a3.7,3.7,0,0,1,.179,2.716s.211-1.938-.409-2.6l-.881.515a3.889,3.889,0,0,1,.277,2.95s.15-2.033-.462-2.825l-.8.622a3.805,3.805,0,0,1,.316,2.7s-.064-2.367-.489-2.546a4.822,4.822,0,0,0-.8.87s.552,1.17.209,1.776c0,0-.211-1.577-.39-1.585a5.248,5.248,0,0,0-.768,1.755,3.794,3.794,0,0,1,.6-1.86,2.088,2.088,0,0,0-1.064.552s.107-.739,1.236-.8a5.332,5.332,0,0,1,.729-.842,4.571,4.571,0,0,0-1.8.209,2.043,2.043,0,0,1,2.01-.39l.78-.643a6.727,6.727,0,0,0-2.105.021,2.563,2.563,0,0,1,2.318-.168l.858-.513a7.7,7.7,0,0,0-2.01-.173,3.084,3.084,0,0,1,2.262.035l.614-.275s-.924-.181-1.193-.211-.285-.1-.285-.1a3.189,3.189,0,0,1,1.733.195A7.648,7.648,0,0,0,721.692,167.38Z" transform="translate(-594.236 -145.47)" fill="#6c63ff"/>
  <path id="Path_22408" data-name="Path 22408" d="M837.152,300.72s-7.408-.446-6.543,4.751a1.268,1.268,0,0,0,.659,1.335s.014-.39.762-.255a3.413,3.413,0,0,0,.805.039,1.669,1.669,0,0,0,.975-.405h0s2.086-.862,2.9-4.27c0,0,.6-.743.575-.934l-1.252.534a2.249,2.249,0,0,1,.092,1.653s-.041-1.62-.281-1.583c-.049,0-.651.314-.651.314a3.7,3.7,0,0,1,.181,2.716s.211-1.938-.411-2.6l-.871.509a3.889,3.889,0,0,1,.277,2.95s.15-2.033-.462-2.825l-.8.624a3.81,3.81,0,0,1,.316,2.7s-.064-2.367-.489-2.546a4.887,4.887,0,0,0-.805.869s.554,1.17.211,1.776c0,0-.211-1.577-.39-1.585a5.248,5.248,0,0,0-.768,1.755,3.805,3.805,0,0,1,.6-1.86,2.1,2.1,0,0,0-1.066.552s.109-.739,1.238-.8a4.865,4.865,0,0,1,.729-.842,4.571,4.571,0,0,0-1.8.209,2.025,2.025,0,0,1,2.008-.38l.78-.643a6.728,6.728,0,0,0-2.106.021,2.563,2.563,0,0,1,2.318-.168l.858-.513a7.812,7.812,0,0,0-2.012-.174,3.09,3.09,0,0,1,2.263.035l.614-.275s-.924-.181-1.2-.211-.285-.1-.285-.1a3.2,3.2,0,0,1,1.735.195A7.867,7.867,0,0,0,837.152,300.72Z" transform="translate(-687.187 -252.815)" fill="#6c63ff" opacity="0.1"/>
  <path id="Path_22409" data-name="Path 22409" d="M612.73,246.832s1.706-7.231-3.566-7.256a1.266,1.266,0,0,0-1.427.421s.376.08.121.793a3.471,3.471,0,0,0-.175.78,1.674,1.674,0,0,0,.232,1.039h0s.493,2.2,3.7,3.583c0,0,.632.717.823.725l-.312-1.324a2.24,2.24,0,0,1-1.645-.195s1.6.236,1.606,0c0-.049-.195-.694-.195-.694a3.7,3.7,0,0,1-2.708-.287s1.874.538,2.636.041l-.351-.959a3.891,3.891,0,0,1-2.956-.23s1.979.5,2.864.027l-.478-.893a3.81,3.81,0,0,1-2.716-.15s2.339.339,2.593-.047a4.844,4.844,0,0,0-.719-.942s-1.24.347-1.786-.1c0,0,1.589.06,1.626-.107A5.257,5.257,0,0,0,608.3,240a3.821,3.821,0,0,1,1.733.908,2.1,2.1,0,0,0-.363-1.144s.71.234.585,1.365a4.855,4.855,0,0,1,.7.862,4.585,4.585,0,0,0,.1-1.813,2.027,2.027,0,0,1,.033,2.045l.5.887a6.471,6.471,0,0,0,.337-2.078,2.556,2.556,0,0,1-.23,2.312l.361.934a7.809,7.809,0,0,0,.513-1.95,3.082,3.082,0,0,1-.421,2.224l.168.651s.335-.879.409-1.14.15-.263.15-.263a3.193,3.193,0,0,1-.485,1.677A7.747,7.747,0,0,0,612.73,246.832Z" transform="translate(-507.77 -203.541)" fill="#6c63ff" opacity="0.1"/>
  <path id="Path_22410" data-name="Path 22410" d="M515.585,282s-5.95-4.451-8.077.37a1.269,1.269,0,0,0-.183,1.478s.222-.314.78.207a3.415,3.415,0,0,0,.651.476,1.672,1.672,0,0,0,1.047.195h0s2.215.427,4.765-1.973c0,0,.91-.292,1-.464l-1.343-.236a2.252,2.252,0,0,1-.832,1.431s.856-1.376.634-1.476c-.045-.021-.716-.1-.716-.1a3.7,3.7,0,0,1-1.341,2.369s1.242-1.5,1.088-2.4l-1.02-.055a3.889,3.889,0,0,1-1.39,2.618s1.242-1.616,1.17-2.614l-1.01.082a3.8,3.8,0,0,1-1.22,2.427s1.246-2.012.99-2.394a4.9,4.9,0,0,0-1.15.283s-.177,1.275-.8,1.6c0,0,.692-1.433.552-1.532a5.241,5.241,0,0,0-1.61,1.047,3.807,3.807,0,0,1,1.525-1.224,2.1,2.1,0,0,0-1.193-.125s.5-.558,1.474.01a4.922,4.922,0,0,1,1.072-.3,4.563,4.563,0,0,0-1.622-.817,2.03,2.03,0,0,1,1.889.78l1.012-.1a6.677,6.677,0,0,0-1.77-1.139s.942-.119,2.028,1.133l1,.045a7.785,7.785,0,0,0-1.583-1.252,3.083,3.083,0,0,1,1.87,1.273l.665.107s-.673-.659-.883-.831-.181-.244-.181-.244a3.2,3.2,0,0,1,1.343,1.115A7.881,7.881,0,0,0,515.585,282Z" transform="translate(-426.849 -236.241)" fill="#6c63ff" opacity="0.1"/>
  <path id="Path_22411" data-name="Path 22411" d="M617.2,69.883s-5.95-4.453-8.077.37a1.269,1.269,0,0,0-.183,1.478s.222-.314.78.207a3.469,3.469,0,0,0,.653.474,1.671,1.671,0,0,0,1.047.195h0s2.215.427,4.765-1.975c0,0,.91-.29.994-.464l-1.343-.232A2.242,2.242,0,0,1,615,71.367s.858-1.376.636-1.476c-.045-.021-.715-.1-.715-.1a3.716,3.716,0,0,1-1.349,2.369s1.24-1.5,1.088-2.4l-1.02-.055a3.892,3.892,0,0,1-1.39,2.616s1.242-1.616,1.17-2.614l-1.008.082a3.809,3.809,0,0,1-1.222,2.429s1.248-2.012.992-2.394a4.9,4.9,0,0,0-1.15.283s-.177,1.275-.8,1.6c0,0,.692-1.433.552-1.534a5.26,5.26,0,0,0-1.61,1.049A3.79,3.79,0,0,1,610.693,70a2.086,2.086,0,0,0-1.2-.125s.5-.558,1.476.01a4.814,4.814,0,0,1,1.072-.3,4.588,4.588,0,0,0-1.622-.819,2.033,2.033,0,0,1,1.887.78l1.012-.1a6.683,6.683,0,0,0-1.77-1.14s.942-.117,2.029,1.135l1,.043A7.7,7.7,0,0,0,613,68.226a3.084,3.084,0,0,1,1.872,1.273l.663.107s-.675-.651-.885-.819-.181-.242-.181-.242a3.2,3.2,0,0,1,1.343,1.115A8.417,8.417,0,0,0,617.2,69.883Z" transform="translate(-508.65 -65.48)" fill="#6c63ff" opacity="0.1"/>
  <path id="Path_22412" data-name="Path 22412" d="M736.193,86.243s-2.378-7.04-6.864-4.273a1.281,1.281,0,0,0-.988,1.113s.361-.133.521.608a3.514,3.514,0,0,0,.267.762,1.689,1.689,0,0,0,.749.758h0s1.583,1.608,5.045,1.076c0,0,.914.277,1.082.181l-.975-.957a2.243,2.243,0,0,1-1.5.706s1.488-.647,1.365-.856c-.025-.041-.534-.483-.534-.483a3.705,3.705,0,0,1-2.449,1.189s1.874-.534,2.256-1.365l-.807-.622a3.885,3.885,0,0,1-2.63,1.365s1.95-.626,2.443-1.491l-.877-.5a3.773,3.773,0,0,1-2.382,1.308s2.168-.949,2.174-1.41a4.875,4.875,0,0,0-1.107-.419s-.869.949-1.56.864c0,0,1.38-.79,1.322-.951a5.231,5.231,0,0,0-1.92-.049,3.8,3.8,0,0,1,1.95-.146,2.1,2.1,0,0,0-.914-.78s.725-.177,1.211.844a4.911,4.911,0,0,1,1.053.359,4.582,4.582,0,0,0-.871-1.593A2.03,2.03,0,0,1,732.36,83.2l.893.487a6.581,6.581,0,0,0-.813-1.95s.844.437,1.027,2.084l.8.6a7.746,7.746,0,0,0-.6-1.93,3.086,3.086,0,0,1,.819,2.111l.485.464s-.179-.924-.253-1.185-.014-.279-.014-.279a3.215,3.215,0,0,1,.474,1.681A7.767,7.767,0,0,0,736.193,86.243Z" transform="translate(-604.912 -76.2)" fill="#6c63ff" opacity="0.1"/>
  <path id="Path_22413" data-name="Path 22413" d="M660.861,108.136s-7.389-.823-6.779,4.42a1.265,1.265,0,0,0,.585,1.365s.033-.39.78-.214a3.587,3.587,0,0,0,.8.08,1.677,1.677,0,0,0,1-.357h0s2.127-.754,3.119-4.117c0,0,.636-.712.622-.9l-1.277.472a2.174,2.174,0,0,1,0,1.655s.041-1.62-.195-1.595c-.049,0-.665.281-.665.281a3.718,3.718,0,0,1,.043,2.729s.308-1.926-.279-2.62l-.906.468a3.875,3.875,0,0,1,.127,2.961s.253-2.024-.318-2.844l-.829.585a3.806,3.806,0,0,1,.177,2.714s.056-2.367-.359-2.568a5.071,5.071,0,0,0-.848.827s.493,1.189.121,1.784c0,0-.131-1.585-.3-1.6a5.242,5.242,0,0,0-.858,1.719,3.8,3.8,0,0,1,.694-1.829,2.1,2.1,0,0,0-1.092.5s.144-.731,1.275-.739c0,0,.614-.762.78-.8a4.583,4.583,0,0,0-1.813.117,2.023,2.023,0,0,1,2.026-.279l.821-.6a6.323,6.323,0,0,0-2.111-.105,2.538,2.538,0,0,1,2.324-.049l.883-.47a7.763,7.763,0,0,0-2-.275,3.062,3.062,0,0,1,2.258.15l.628-.244s-.914-.228-1.183-.271-.279-.117-.279-.117a3.207,3.207,0,0,1,1.723.281A7.977,7.977,0,0,0,660.861,108.136Z" transform="translate(-545.102 -97.746)" fill="#6c63ff" opacity="0.1"/>
  <path id="Path_22414" data-name="Path 22414" d="M992.477,402.306s-7.385-.823-6.775,4.414a1.265,1.265,0,0,0,.585,1.365s.033-.39.78-.216a3.372,3.372,0,0,0,.8.08,1.663,1.663,0,0,0,1-.357h0s2.127-.754,3.11-4.115c0,0,.635-.714.622-.9l-1.277.47a2.18,2.18,0,0,1,0,1.657s.041-1.622-.195-1.595c-.049,0-.665.279-.665.279a3.718,3.718,0,0,1,.043,2.729s.308-1.924-.279-2.62l-.907.47a3.881,3.881,0,0,1,.129,2.961s.252-2.024-.32-2.846l-.829.585a3.8,3.8,0,0,1,.177,2.712s.057-2.367-.359-2.566a5.146,5.146,0,0,0-.848.827s.5,1.189.121,1.784c0,0-.131-1.585-.3-1.6a5.243,5.243,0,0,0-.858,1.719,3.8,3.8,0,0,1,.694-1.829,2.08,2.08,0,0,0-1.092.5s.144-.733,1.275-.741c0,0,.616-.762.78-.8a4.568,4.568,0,0,0-1.813.115,2.028,2.028,0,0,1,2.028-.277l.819-.6a6.516,6.516,0,0,0-2.1-.086,2.542,2.542,0,0,1,2.324-.051l.883-.468a7.76,7.76,0,0,0-2-.275,3.062,3.062,0,0,1,2.258.15l.628-.246s-.914-.228-1.183-.269-.279-.117-.279-.117a3.2,3.2,0,0,1,1.723.279A7.632,7.632,0,0,0,992.477,402.306Z" transform="translate(-812.071 -334.566)" fill="#6c63ff" opacity="0.1"/>
  <path id="Path_22415" data-name="Path 22415" d="M1050.387,437.687s-7.385-.821-6.775,4.414a1.269,1.269,0,0,0,.585,1.365s.033-.39.78-.214a3.444,3.444,0,0,0,.8.078,1.684,1.684,0,0,0,1-.355h0s2.125-.754,3.108-4.117c0,0,.638-.712.622-.9l-1.277.47a2.18,2.18,0,0,1,0,1.657s.041-1.62-.195-1.595c-.049,0-.665.279-.665.279a3.718,3.718,0,0,1,.043,2.729s.308-1.924-.279-2.618l-.906.468a3.881,3.881,0,0,1,.129,2.961s.251-2.024-.32-2.844l-.828.585a3.814,3.814,0,0,1,.179,2.714s.055-2.369-.361-2.568a5.146,5.146,0,0,0-.848.827s.5,1.189.121,1.784c0,0-.131-1.585-.3-1.6a5.211,5.211,0,0,0-.856,1.719,3.806,3.806,0,0,1,.692-1.829,2.1,2.1,0,0,0-1.092.5s.146-.733,1.277-.739c0,0,.614-.762.78-.8a4.583,4.583,0,0,0-1.813.117,2.025,2.025,0,0,1,2.028-.279l.819-.6a6.516,6.516,0,0,0-2.1-.086,2.539,2.539,0,0,1,2.324-.049l.883-.47a7.761,7.761,0,0,0-2-.275,3.062,3.062,0,0,1,2.258.15l.628-.244s-.914-.228-1.181-.271-.281-.117-.281-.117a3.207,3.207,0,0,1,1.723.281A7.712,7.712,0,0,0,1050.387,437.687Z" transform="translate(-858.691 -363.049)" fill="#6c63ff" opacity="0.1"/>
  <path id="Path_22416" data-name="Path 22416" d="M915.135,132.136s-5.95-4.451-8.077.37a1.269,1.269,0,0,0-.183,1.478s.222-.314.78.207a3.414,3.414,0,0,0,.651.476,1.674,1.674,0,0,0,1.047.195h0s2.215.427,4.767-1.973c0,0,.908-.292.994-.464l-1.339-.242a2.252,2.252,0,0,1-.832,1.431s.856-1.376.634-1.476c-.045-.021-.714-.1-.714-.1a3.705,3.705,0,0,1-1.343,2.369s1.242-1.5,1.088-2.4l-1.02-.055a3.889,3.889,0,0,1-1.39,2.618s1.244-1.616,1.17-2.614l-1.01.082a3.748,3.748,0,0,1-1.22,2.427s1.248-2.012.99-2.394a4.9,4.9,0,0,0-1.15.283s-.175,1.275-.8,1.6c0,0,.69-1.433.55-1.532a5.24,5.24,0,0,0-1.61,1.047,3.808,3.808,0,0,1,1.525-1.224,2.1,2.1,0,0,0-1.193-.125s.5-.558,1.476.01a4.9,4.9,0,0,1,1.07-.3,4.562,4.562,0,0,0-1.622-.817,2.03,2.03,0,0,1,1.889.78l1.012-.1a6.643,6.643,0,0,0-1.77-1.139s.942-.119,2.028,1.133l1,.045a7.815,7.815,0,0,0-1.585-1.252,3.078,3.078,0,0,1,1.87,1.273l.665.107s-.673-.659-.883-.831-.179-.228-.179-.228a3.205,3.205,0,0,1,1.341,1.115A7.829,7.829,0,0,0,915.135,132.136Z" transform="translate(-748.505 -115.597)" fill="#6c63ff" opacity="0.1"/>
  <path id="Path_22417" data-name="Path 22417" d="M941.713,283.494s-2.051-7.141-6.664-4.578a1.267,1.267,0,0,0-1.039,1.066s.367-.115.493.632a3.462,3.462,0,0,0,.234.78,1.675,1.675,0,0,0,.714.8h0s1.509,1.677,4.991,1.3c0,0,.9.316,1.072.23l-.922-1a2.242,2.242,0,0,1-1.527.639s1.513-.585,1.4-.793c-.023-.043-.511-.509-.511-.509a3.693,3.693,0,0,1-2.5,1.078s1.9-.448,2.314-1.255l-.78-.659a3.9,3.9,0,0,1-2.688,1.248s1.965-.54,2.507-1.38l-.854-.544a3.8,3.8,0,0,1-2.439,1.2s2.209-.852,2.236-1.31a4.867,4.867,0,0,0-1.09-.468s-.91.909-1.6.792c0,0,1.415-.727,1.365-.891a5.266,5.266,0,0,0-1.916-.136,3.8,3.8,0,0,1,1.95-.057,2.092,2.092,0,0,0-.877-.819s.733-.146,1.17.9a4.868,4.868,0,0,1,1.035.406,4.559,4.559,0,0,0-.8-1.63,2.025,2.025,0,0,1,1.031,1.766l.87.528a6.485,6.485,0,0,0-.725-1.977,2.56,2.56,0,0,1,.934,2.127l.78.638a7.732,7.732,0,0,0-.509-1.95,3.081,3.081,0,0,1,.723,2.145l.464.487s-.136-.932-.195-1.2,0-.3,0-.3a3.2,3.2,0,0,1,.4,1.7A7.734,7.734,0,0,0,941.713,283.494Z" transform="translate(-770.486 -234.822)" fill="#6c63ff" opacity="0.1"/>
  <path id="Path_22418" data-name="Path 22418" d="M704.427,371.883s-3.983-6.274-7.681-2.519a1.261,1.261,0,0,0-.7,1.316s.322-.214.653.468a3.339,3.339,0,0,0,.441.675,1.665,1.665,0,0,0,.907.561h0s1.92,1.185,5.157-.156c0,0,.953.051,1.094-.08l-1.17-.7a2.241,2.241,0,0,1-1.287,1.043s1.291-.975,1.117-1.154c-.033-.035-.634-.343-.634-.343a3.7,3.7,0,0,1-2.1,1.737s1.694-.965,1.87-1.858l-.934-.411a3.883,3.883,0,0,1-2.228,1.95s1.735-1.07,2.018-2.029l-.975-.281s-.823,1.593-2,1.836c0,0,1.879-1.439,1.776-1.887a4.844,4.844,0,0,0-1.17-.142s-.618,1.129-1.316,1.211c0,0,1.154-1.1,1.059-1.24a5.253,5.253,0,0,0-1.877.409,3.794,3.794,0,0,1,1.86-.6,2.092,2.092,0,0,0-1.07-.54s.661-.345,1.365.532a4.816,4.816,0,0,1,1.109.1,4.488,4.488,0,0,0-1.226-1.339s.916.078,1.486,1.406l.984.261a6.518,6.518,0,0,0-1.252-1.692s.922.222,1.493,1.78l.92.39a7.774,7.774,0,0,0-1.039-1.731,3.072,3.072,0,0,1,1.3,1.854l.585.337s-.39-.856-.528-1.092-.084-.29-.084-.29a3.2,3.2,0,0,1,.86,1.519A7.929,7.929,0,0,0,704.427,371.883Z" transform="translate(-578.901 -307.12)" fill="#6c63ff" opacity="0.1"/>
  <path id="Path_22419" data-name="Path 22419" d="M838.882,206.812s-3.788-6.393-7.6-2.755a1.268,1.268,0,0,0-.737,1.295s.326-.207.638.485a3.368,3.368,0,0,0,.419.69,1.655,1.655,0,0,0,.889.585h0s1.881,1.244,5.159,0c0,0,.951.08,1.1-.047l-1.144-.737a2.242,2.242,0,0,1-1.318,1s1.32-.942,1.154-1.119c-.035-.037-.624-.365-.624-.365a3.706,3.706,0,0,1-2.145,1.673s1.723-.912,1.924-1.8l-.92-.433a3.888,3.888,0,0,1-2.289,1.883s1.768-1.016,2.08-1.965l-.963-.312s-.873,1.56-2.059,1.774c0,0,1.922-1.38,1.833-1.831a4.815,4.815,0,0,0-1.17-.179s-.653,1.109-1.353,1.17c0,0,1.187-1.057,1.1-1.2a5.248,5.248,0,0,0-1.889.351,3.806,3.806,0,0,1,1.877-.546,2.1,2.1,0,0,0-1.055-.573s.673-.326,1.365.573a4.939,4.939,0,0,1,1.105.133,4.663,4.663,0,0,0-1.183-1.376s.912.105,1.441,1.45l.975.292a6.48,6.48,0,0,0-1.2-1.731s.916.251,1.439,1.825l.907.423a7.831,7.831,0,0,0-.975-1.755,3.084,3.084,0,0,1,1.24,1.893l.571.355s-.367-.868-.5-1.107-.074-.292-.074-.292a3.2,3.2,0,0,1,.813,1.544A7.545,7.545,0,0,0,838.882,206.812Z" transform="translate(-687.179 -174.103)" fill="#6c63ff"/>
  <path id="Path_22420" data-name="Path 22420" d="M724.51,264.993s.195-7.428-4.965-6.381a1.27,1.27,0,0,0-1.314.7s.39,0,.281.751a3.427,3.427,0,0,0-.012.807,1.667,1.667,0,0,0,.439.975h0s.93,2.055,4.363,2.753c0,0,.762.575.953.544l-.585-1.232a2.25,2.25,0,0,1-1.649.146s1.618-.1,1.573-.333c0-.049-.335-.641-.335-.641a3.69,3.69,0,0,1-2.708.271s1.95.146,2.587-.5l-.544-.864a3.894,3.894,0,0,1-2.94.374s2.037.082,2.809-.556l-.649-.78a3.8,3.8,0,0,1-2.688.405s2.363-.142,2.534-.573a5.055,5.055,0,0,0-.9-.78s-1.142.585-1.766.269c0,0,1.56-.261,1.569-.435a5.232,5.232,0,0,0-1.786-.71,3.8,3.8,0,0,1,1.881.538,2.1,2.1,0,0,0-.585-1.047s.743.084.844,1.209a4.846,4.846,0,0,1,.866.7,4.559,4.559,0,0,0-.269-1.8,2.023,2.023,0,0,1,.448,1.994l.669.768a6.526,6.526,0,0,0-.092-2.1,2.563,2.563,0,0,1,.246,2.31l.54.84a7.772,7.772,0,0,0,.107-2.016,3.094,3.094,0,0,1,.039,2.263l.3.6s.15-.93.17-1.2.094-.289.094-.289a3.2,3.2,0,0,1-.135,1.741A7.433,7.433,0,0,0,724.51,264.993Z" transform="translate(-596.773 -218.842)" fill="#6c63ff"/>
  <ellipse id="Ellipse_3506" data-name="Ellipse 3506" cx="5.25" cy="0.887" rx="5.25" ry="0.887" transform="translate(131.018 138.758)" fill="#6c63ff" opacity="0.1"/>
  <ellipse id="Ellipse_3507" data-name="Ellipse 3507" cx="5.25" cy="0.887" rx="5.25" ry="0.887" transform="translate(111.879 152.225)" fill="#6c63ff" opacity="0.1"/>
  <ellipse id="Ellipse_3508" data-name="Ellipse 3508" cx="5.25" cy="0.887" rx="5.25" ry="0.887" transform="translate(12.909 145.326)" fill="#6c63ff" opacity="0.1"/>
  <ellipse id="Ellipse_3509" data-name="Ellipse 3509" cx="5.25" cy="0.887" rx="5.25" ry="0.887" transform="translate(151.701 151.338)" fill="#6c63ff" opacity="0.1"/>
  <ellipse id="Ellipse_3510" data-name="Ellipse 3510" cx="7.839" cy="1.326" rx="7.839" ry="1.326" transform="translate(154.578 139.645)" fill="#6c63ff"/>
  <path id="Path_22421" data-name="Path 22421" d="M915.056,752.09a2.264,2.264,0,0,0,.747-1.127,1,1,0,0,0-.521-1.148,1.472,1.472,0,0,0-1.382.484,1.852,1.852,0,0,1-1.341.649,2.047,2.047,0,0,0,.632-1.912.8.8,0,0,0-.175-.39c-.267-.285-.749-.162-1.068.063a3.979,3.979,0,0,0-1.3,3.33,6.259,6.259,0,0,1-.018-1.365,1.4,1.4,0,0,0-.517-1.213,1.541,1.541,0,0,0-.78-.195,1.628,1.628,0,0,0-1.275.363,1.256,1.256,0,0,0,.049,1.56,5.042,5.042,0,0,0,1.32,1.057,2.949,2.949,0,0,1,.944.9.914.914,0,0,1,.068.16h2.858A7.883,7.883,0,0,0,915.056,752.09Z" transform="translate(-749.389 -613.289)" fill="#6c63ff"/>
  <path id="Path_22422" data-name="Path 22422" d="M170.29,777.189s2.993-.092,3.9-.735,4.607-1.409,4.831-.378,4.5,5.125,1.119,5.153-7.855-.526-8.755-1.076S170.29,777.189,170.29,777.189Z" transform="translate(-155.656 -635.099)" fill="#a8a8a8"/>
  <path id="Path_22423" data-name="Path 22423" d="M180.2,787.535c-3.381.027-7.855-.526-8.755-1.076-.686-.417-.959-1.916-1.051-2.609h-.1s.195,2.415,1.09,2.963,5.375,1.1,8.755,1.076c.975,0,1.312-.355,1.294-.87C181.293,787.334,180.921,787.529,180.2,787.535Z" transform="translate(-155.656 -641.764)" opacity="0.2"/>
</svg>
