<svg xmlns="http://www.w3.org/2000/svg" width="22.75" height="20.463" viewBox="0 0 22.75 20.463">
  <g id="Layer_2" data-name="Layer 2" transform="translate(0 -0.026)">
    <g id="Ways_of_payment" transform="translate(0 0.026)">
      <path id="Path_3" data-name="Path 3" d="M19.87,4.623,18.4,1.893A3.64,3.64,0,0,0,13.482.469L5.915,4.564H3.64A3.64,3.64,0,0,0,0,8.2v8.645a3.64,3.64,0,0,0,3.64,3.64H19.11a3.64,3.64,0,0,0,3.64-3.64V8.2a3.64,3.64,0,0,0-2.88-3.581Zm-5.31-2.17a1.333,1.333,0,0,1,.646-.164A1.365,1.365,0,0,1,16.4,3l.837,1.565H10.7Zm5.915,14.4a1.365,1.365,0,0,1-1.365,1.365H3.64a1.365,1.365,0,0,1-1.365-1.365V8.2A1.365,1.365,0,0,1,3.64,6.839H19.11A1.365,1.365,0,0,1,20.475,8.2Z" transform="translate(0 -0.026)" fill="#15232e"/>
      <rect id="Rectangle_4" data-name="Rectangle 4" width="13.65" height="2.275" rx="1.137" transform="translate(4.55 9.07)" fill="#00c569"/>
    </g>
  </g>
</svg>
