<svg xmlns="http://www.w3.org/2000/svg" width="141.38" height="57.85" viewBox="0 0 141.38 57.85">
  <g id="Group_39139" data-name="Group 39139" transform="translate(17909 20429)">
    <g id="Group_38610" data-name="Group 38610" transform="translate(-17909 -20429)">
      <g id="Group_27891" data-name="Group 27891" transform="translate(0 0.036)">
        <path id="Path_81239" data-name="Path 81239" d="M224.377,228.538q0-9.177,12.608-9.177,12.639,0,12.639,9.177v5.88h-8.788v-5.88q0-2.94-3.82-2.962h-.062q-3.789,0-3.788,2.962V232.5q0,2.919,8.229,7.15,8.229,4.209,8.23,10.09v5.523q0,9.2-12.608,9.2-12.64-.022-12.639-9.2v-5.88h8.788v5.88q0,2.963,3.851,2.962,3.82,0,3.82-2.962v-4.989q0-3.162-8.23-7.394-8.229-4.21-8.229-10.246Z" transform="translate(-224.377 -219.362)" fill="#949494"/>
      </g>
      <path id="Path_81240" data-name="Path 81240" d="M702.792,219.181v23.63c0,1.9-1.274,3.627-3.335,4.875a13.707,13.707,0,0,1-4.029,1.578v15.106h-8.041V249.265c-4.3-.985-7.364-3.5-7.364-6.454v-23.63h8.2v23.588c0,1.066,1.425,1.93,3.187,1.93s3.188-.864,3.188-1.93V219.181Z" transform="translate(-588.42 -219.181)" fill="#949494"/>
      <path id="Path_81241" data-name="Path 81241" d="M828.42,219.181c-6.124,0-11.088,2.766-11.088,6.18v39.01h7.981V249.259a19.351,19.351,0,0,0,3.107.247,16.432,16.432,0,0,0,7.839-1.809c2.006-1.118,3.246-2.664,3.246-4.371V225.361C839.505,221.947,834.542,219.181,828.42,219.181Zm3.1,19.3c0,.01,0,.018,0,.028s0,.018,0,.028v5.03c0,.955-1.392,1.729-3.1,1.729a4.587,4.587,0,0,1-2.2-.507,1.5,1.5,0,0,1-.911-1.222V225.224c0-.955,1.392-1.729,3.107-1.729a4.585,4.585,0,0,1,2.193.506,1.5,1.5,0,0,1,.911,1.222Z" transform="translate(-698.124 -219.181)" fill="#949494"/>
      <path id="Path_81242" data-name="Path 81242" d="M397.8,219.191v6.136h-9.354v39.052h-8.041V225.326h-9.354v-6.136Z" transform="translate(-341.565 -219.189)" fill="#949494"/>
      <path id="Path_81243" data-name="Path 81243" d="M540.123,228.048c-.3-4.871-5.9-8.754-12.766-8.754h0c-6.866,0-12.465,3.883-12.766,8.754h-.015v6.4l-3.555-1.5q.009,3.387.018,6.774l3.537,1.465v13.931c0,5.063,5.722,9.167,12.781,9.167h0c7.058,0,12.781-4.1,12.781-9.167v-5.957h-9.2v6.251c0,1.417-1.6,2.567-3.579,2.567h0c-1.976,0-3.578-1.149-3.578-2.567v-7.4c0-.014,0-.027,0-.041s0-.02,0-.03,0-.02,0-.03,0-.027,0-.041v-2.532a17.5,17.5,0,0,0,3.578.367h0c5.854,0,10.786-2.824,12.3-6.676h.013l0-.038a6.783,6.783,0,0,0,.466-2.453v-8.484Zm-12.766,11.4h0a4.746,4.746,0,0,1-1.476-.232l-.768-.325-1.334-.624v-8.85c0-.014,0-.027,0-.041s0-.027,0-.041V228.26c0-1.418,1.6-2.567,3.578-2.567h0c1.976,0,3.579,1.149,3.579,2.567v1.081c0,.014,0,.027,0,.041s0,.027,0,.041v7.464C530.936,238.3,529.334,239.453,527.358,239.453Z" transform="translate(-453.394 -219.271)" fill="#949494"/>
    </g>
    <g id="Group_38615" data-name="Group 38615" transform="translate(-17881.818 -20380.852)">
      <path id="Path_93926" data-name="Path 93926" d="M675.837,1266.3l-.688-1.913h-2.634l-.674,1.913h-1.187l2.577-6.917h1.225l2.577,6.917Zm-.985-2.884-.646-1.875q-.071-.188-.2-.594t-.172-.594a10.58,10.58,0,0,1-.372,1.268l-.622,1.8Z" transform="translate(-670.654 -1258.914)" fill="#949494"/>
      <path id="Path_93927" data-name="Path 93927" d="M742.616,1279.827H741.5v-3.2a1.4,1.4,0,0,0-.243-.9.937.937,0,0,0-.77-.3,1.225,1.225,0,0,0-1.027.414,2.29,2.29,0,0,0-.325,1.39v2.6h-1.107v-5.211h.867l.156.683h.057a1.541,1.541,0,0,1,.669-.574,2.24,2.24,0,0,1,.961-.2,1.672,1.672,0,0,1,1.875,1.908Z" transform="translate(-730.86 -1272.443)" fill="#949494"/>
      <path id="Path_93928" data-name="Path 93928" d="M818.513,1257.253a.613.613,0,0,1,.163-.457.633.633,0,0,1,.464-.16.62.62,0,0,1,.455.16.613.613,0,0,1,.162.457.6.6,0,0,1-.162.445.615.615,0,0,1-.455.162.628.628,0,0,1-.464-.162A.6.6,0,0,1,818.513,1257.253Zm1.173,6.592h-1.107v-5.211h1.107Z" transform="translate(-802.775 -1256.462)" fill="#949494"/>
      <path id="Path_93929" data-name="Path 93929" d="M849,1279.827h-1.112v-3.2a1.4,1.4,0,0,0-.243-.9.937.937,0,0,0-.77-.3,1.224,1.224,0,0,0-1.027.414,2.289,2.289,0,0,0-.325,1.39v2.6h-1.107v-5.211h.867l.155.683h.056a1.541,1.541,0,0,1,.669-.574,2.241,2.241,0,0,1,.961-.2,1.672,1.672,0,0,1,1.875,1.908Z" transform="translate(-825.917 -1272.443)" fill="#949494"/>
      <path id="Path_93930" data-name="Path 93930" d="M901.341,1257.253a.613.613,0,0,1,.162-.457.634.634,0,0,1,.464-.16.62.62,0,0,1,.454.16.613.613,0,0,1,.163.457.6.6,0,0,1-.163.445.615.615,0,0,1-.454.162.628.628,0,0,1-.464-.162A.6.6,0,0,1,901.341,1257.253Zm1.173,6.592h-1.107v-5.211h1.107Z" transform="translate(-876.787 -1256.462)" fill="#949494"/>
      <path id="Path_93931" data-name="Path 93931" d="M924.077,1270.086a2.692,2.692,0,0,0,.81-.127v.834a2.229,2.229,0,0,1-.473.134,3.273,3.273,0,0,1-.6.054q-1.574,0-1.574-1.659v-2.808h-.711v-.49l.763-.405.377-1.1h.683v1.159h1.484v.839h-1.484v2.789a.783.783,0,0,0,.2.592A.731.731,0,0,0,924.077,1270.086Z" transform="translate(-894.826 -1263.504)" fill="#949494"/>
      <path id="Path_93932" data-name="Path 93932" d="M962.255,1257.253a.613.613,0,0,1,.163-.457.634.634,0,0,1,.464-.16.62.62,0,0,1,.455.16.613.613,0,0,1,.163.457.6.6,0,0,1-.163.445.615.615,0,0,1-.455.162.628.628,0,0,1-.464-.162A.6.6,0,0,1,962.255,1257.253Zm1.173,6.592h-1.107v-5.211h1.107Z" transform="translate(-931.218 -1256.462)" fill="#949494"/>
      <path id="Path_93933" data-name="Path 93933" d="M988.328,1279.827l-.221-.726h-.038a2.134,2.134,0,0,1-.759.648,2.4,2.4,0,0,1-.98.172,1.658,1.658,0,0,1-1.2-.415,1.551,1.551,0,0,1-.431-1.173,1.378,1.378,0,0,1,.6-1.216,3.449,3.449,0,0,1,1.823-.447l.9-.028v-.278a1.054,1.054,0,0,0-.233-.747.951.951,0,0,0-.723-.248,2.5,2.5,0,0,0-.768.118,5.756,5.756,0,0,0-.707.278l-.358-.792a3.864,3.864,0,0,1,.928-.337,4.275,4.275,0,0,1,.952-.115,2.254,2.254,0,0,1,1.5.433,1.7,1.7,0,0,1,.506,1.362v3.51Zm-1.649-.754a1.371,1.371,0,0,0,.968-.337,1.222,1.222,0,0,0,.365-.945v-.452l-.669.028a2.291,2.291,0,0,0-1.138.261.794.794,0,0,0-.356.714.7.7,0,0,0,.207.539A.891.891,0,0,0,986.679,1279.073Z" transform="translate(-951.274 -1272.443)" fill="#949494"/>
      <path id="Path_93934" data-name="Path 93934" d="M1037.583,1270.086a2.693,2.693,0,0,0,.811-.127v.834a2.234,2.234,0,0,1-.474.134,3.274,3.274,0,0,1-.6.054q-1.574,0-1.574-1.659v-2.808h-.712v-.49l.763-.405.377-1.1h.683v1.159h1.484v.839h-1.484v2.789a.783.783,0,0,0,.2.592A.73.73,0,0,0,1037.583,1270.086Z" transform="translate(-996.25 -1263.504)" fill="#949494"/>
      <path id="Path_93935" data-name="Path 93935" d="M1075.762,1257.253a.613.613,0,0,1,.162-.457.634.634,0,0,1,.464-.16.621.621,0,0,1,.455.16.615.615,0,0,1,.162.457.6.6,0,0,1-.162.445.616.616,0,0,1-.455.162.629.629,0,0,1-.464-.162A.6.6,0,0,1,1075.762,1257.253Zm1.173,6.592h-1.107v-5.211h1.107Z" transform="translate(-1032.643 -1256.462)" fill="#949494"/>
      <path id="Path_93936" data-name="Path 93936" d="M1096.2,1280.617l-1.979-5.211h1.168l1.06,3.03a6.018,6.018,0,0,1,.33,1.234h.038a8.309,8.309,0,0,1,.33-1.234l1.06-3.03h1.178l-1.988,5.211Z" transform="translate(-1049.139 -1273.234)" fill="#949494"/>
      <path id="Path_93937" data-name="Path 93937" d="M1149.844,1279.921a2.521,2.521,0,0,1-1.9-.709,2.693,2.693,0,0,1-.686-1.953,2.952,2.952,0,0,1,.636-2.007,2.2,2.2,0,0,1,1.748-.73,2.148,2.148,0,0,1,1.63.626,2.4,2.4,0,0,1,.6,1.725v.6H1148.4a1.71,1.71,0,0,0,.41,1.166,1.427,1.427,0,0,0,1.088.408,4.018,4.018,0,0,0,.86-.087,4.515,4.515,0,0,0,.855-.29v.9a3.414,3.414,0,0,1-.82.273A5.012,5.012,0,0,1,1149.844,1279.921Zm-.2-4.561a1.112,1.112,0,0,0-.846.334,1.6,1.6,0,0,0-.379.975h2.365a1.442,1.442,0,0,0-.311-.978A1.064,1.064,0,0,0,1149.641,1275.36Z" transform="translate(-1096.529 -1272.443)" fill="#949494"/>
      <path id="Path_93938" data-name="Path 93938" d="M1223.322,1258.009h-1.272v4.373h-1.112v-4.373h-.858v-.518l.858-.339v-.339a1.9,1.9,0,0,1,.433-1.369,1.773,1.773,0,0,1,1.324-.445,3.538,3.538,0,0,1,1.15.193l-.292.839a2.55,2.55,0,0,0-.782-.132.637.637,0,0,0-.549.233,1.175,1.175,0,0,0-.172.7v.339h1.272Z" transform="translate(-1161.601 -1254.998)" fill="#949494"/>
      <path id="Path_93939" data-name="Path 93939" d="M1261.5,1274.521a2.69,2.69,0,0,1,.551.047l-.109,1.032a2.111,2.111,0,0,0-.49-.056,1.417,1.417,0,0,0-1.076.433,1.567,1.567,0,0,0-.412,1.126v2.724h-1.108v-5.211h.867l.146.919h.057a2.067,2.067,0,0,1,.676-.74A1.606,1.606,0,0,1,1261.5,1274.521Z" transform="translate(-1196.252 -1272.443)" fill="#949494"/>
      <path id="Path_93940" data-name="Path 93940" d="M1299.96,1277.211a2.844,2.844,0,0,1-.655,1.993,2.347,2.347,0,0,1-1.823.716,2.5,2.5,0,0,1-1.291-.33,2.177,2.177,0,0,1-.862-.947,3.227,3.227,0,0,1-.3-1.432,2.824,2.824,0,0,1,.65-1.979,2.358,2.358,0,0,1,1.833-.711,2.3,2.3,0,0,1,1.791.728A2.812,2.812,0,0,1,1299.96,1277.211Zm-3.793,0q0,1.8,1.333,1.8t1.319-1.8q0-1.786-1.329-1.786a1.132,1.132,0,0,0-1.011.462A2.347,2.347,0,0,0,1296.167,1277.211Z" transform="translate(-1228.571 -1272.443)" fill="#949494"/>
      <path id="Path_93941" data-name="Path 93941" d="M1357.721,1279.827h-1.112v-3.214a1.459,1.459,0,0,0-.226-.893.836.836,0,0,0-.707-.294,1.078,1.078,0,0,0-.94.417,2.45,2.45,0,0,0-.3,1.388v2.6h-1.107v-5.211h.867l.156.683h.057a1.442,1.442,0,0,1,.629-.574,2.029,2.029,0,0,1,.907-.2,1.585,1.585,0,0,1,1.593.82h.075a1.59,1.59,0,0,1,.651-.6,2.063,2.063,0,0,1,.961-.217,1.75,1.75,0,0,1,1.359.471,2.086,2.086,0,0,1,.426,1.437v3.4H1359.9v-3.214a1.446,1.446,0,0,0-.228-.893.841.841,0,0,0-.709-.294,1.1,1.1,0,0,0-.945.4,2.077,2.077,0,0,0-.3,1.237Z" transform="translate(-1280.668 -1272.443)" fill="#949494"/>
      <path id="Path_93942" data-name="Path 93942" d="M1461.269,1266.535h-1.461v-5.673h-1.871v-1.216h5.2v1.216h-1.871Z" transform="translate(-1374.142 -1259.151)" fill="#949494"/>
      <path id="Path_93943" data-name="Path 93943" d="M1516.129,1279.232l-.278-.716h-.037a2.131,2.131,0,0,1-.747.634,2.415,2.415,0,0,1-1,.177,1.618,1.618,0,0,1-1.194-.433,1.664,1.664,0,0,1-.436-1.234,1.39,1.39,0,0,1,.586-1.237,3.4,3.4,0,0,1,1.769-.441l.914-.028v-.231a.717.717,0,0,0-.82-.8,3.735,3.735,0,0,0-1.484.382l-.476-.971a4.284,4.284,0,0,1,2.017-.476,2.512,2.512,0,0,1,1.626.462,1.706,1.706,0,0,1,.566,1.4v3.51Zm-.424-2.441-.556.019a1.785,1.785,0,0,0-.933.226.711.711,0,0,0-.306.632q0,.608.7.608a1.1,1.1,0,0,0,.8-.287,1.01,1.01,0,0,0,.3-.763Z" transform="translate(-1422.838 -1271.849)" fill="#949494"/>
      <path id="Path_93944" data-name="Path 93944" d="M1571.908,1262.817h-1.437v-7.332h1.437Z" transform="translate(-1474.697 -1255.433)" fill="#949494"/>
      <path id="Path_93945" data-name="Path 93945" d="M1601.079,1273.945a2.313,2.313,0,0,1,.485.042l-.108,1.348a1.638,1.638,0,0,0-.424-.047,1.524,1.524,0,0,0-1.072.354,1.277,1.277,0,0,0-.384.989v2.681h-1.437v-5.268h1.088l.212.886h.071a1.978,1.978,0,0,1,.662-.714A1.631,1.631,0,0,1,1601.079,1273.945Z" transform="translate(-1499.42 -1271.928)" fill="#949494"/>
      <path id="Path_93946" data-name="Path 93946" d="M1641.408,1276.668a2.831,2.831,0,0,1-.679,2.012,2.461,2.461,0,0,1-1.889.726,2.645,2.645,0,0,1-1.338-.332,2.21,2.21,0,0,1-.89-.954,3.205,3.205,0,0,1-.311-1.451,2.815,2.815,0,0,1,.674-2.007,2.474,2.474,0,0,1,1.894-.716,2.66,2.66,0,0,1,1.339.33,2.2,2.2,0,0,1,.89.947A3.176,3.176,0,0,1,1641.408,1276.668Zm-3.642,0a2.212,2.212,0,0,0,.257,1.183.918.918,0,0,0,.836.4.9.9,0,0,0,.827-.4,2.241,2.241,0,0,0,.252-1.185,2.177,2.177,0,0,0-.254-1.173,1.082,1.082,0,0,0-1.663,0A2.173,2.173,0,0,0,1637.765,1276.668Z" transform="translate(-1533.52 -1271.928)" fill="#949494"/>
      <path id="Path_93947" data-name="Path 93947" d="M1698.335,1279.406a1.747,1.747,0,0,1-1.456-.674h-.075q.075.66.075.763v2.134h-1.437v-7.586h1.169l.2.683h.066a1.663,1.663,0,0,1,1.494-.782,1.708,1.708,0,0,1,1.46.721,3.333,3.333,0,0,1,.528,2,3.954,3.954,0,0,1-.247,1.465,2.057,2.057,0,0,1-.7.947A1.806,1.806,0,0,1,1698.335,1279.406Zm-.424-4.312a.908.908,0,0,0-.778.328,1.878,1.878,0,0,0-.254,1.081v.156a2.22,2.22,0,0,0,.252,1.216.9.9,0,0,0,.8.367q.966,0,.966-1.593a2.275,2.275,0,0,0-.238-1.166A.812.812,0,0,0,1697.911,1275.094Z" transform="translate(-1586.367 -1271.928)" fill="#949494"/>
    </g>
  </g>
</svg>
