<svg id="Group_39120" data-name="Group 39120" xmlns="http://www.w3.org/2000/svg" width="18.63" height="18.629" viewBox="0 0 18.63 18.629">
  <path id="Path_94117" data-name="Path 94117" d="M20.061,19.834h0v-6.57c0-3.214-.692-5.69-4.449-5.69A3.9,3.9,0,0,0,12.1,9.5h-.052V7.874H8.489V19.833H12.2V13.911c0-1.559.3-3.067,2.226-3.067,1.9,0,1.931,1.779,1.931,3.167v5.822Z" transform="translate(-1.437 -1.205)" fill="#fff"/>
  <path id="Path_94118" data-name="Path 94118" d="M.4,7.977H4.11V19.936H.4Z" transform="translate(-0.1 -1.307)" fill="#fff"/>
  <path id="Path_94119" data-name="Path 94119" d="M2.151,0A2.161,2.161,0,1,0,4.3,2.151,2.152,2.152,0,0,0,2.151,0Z" transform="translate(0 0)" fill="#fff"/>
</svg>
