<svg xmlns="http://www.w3.org/2000/svg" width="16.951" height="21.607" viewBox="0 0 16.951 21.607">
  <path id="padlock" d="M17.832,8.1h-.711V5.4A5.528,5.528,0,0,0,11.473,0,5.528,5.528,0,0,0,5.824,5.4V8.1H5.119A2.076,2.076,0,0,0,3,10.128v9.453a2.076,2.076,0,0,0,2.119,2.026H17.832a2.076,2.076,0,0,0,2.119-2.026V10.128A2.076,2.076,0,0,0,17.832,8.1ZM7.707,5.4a3.686,3.686,0,0,1,3.766-3.6,3.686,3.686,0,0,1,3.766,3.6V8.1H7.707Zm4.707,9.655v2.051a.942.942,0,0,1-1.883,0V15.055a1.768,1.768,0,0,1-.877-2.025,1.907,1.907,0,0,1,3.637,0,1.768,1.768,0,0,1-.877,2.025Z" transform="translate(-3)"/>
</svg>
