<svg id="Layer_2" data-name="Layer 2" xmlns="http://www.w3.org/2000/svg" width="28.494" height="20.516" viewBox="0 0 28.494 20.516">
  <g id="The_envelope">
    <path id="Path_20" data-name="Path 20" d="M24.173,17.811l6.269-5.066a1.425,1.425,0,0,0-1.51-2.416l-6.269,5.066a1.425,1.425,0,1,0,1.51,2.416Z" transform="translate(-9.458 -4.35)" fill="#00c569"/>
    <path id="Path_21" data-name="Path 21" d="M19.444,15.394l-6.269-5.066a1.425,1.425,0,0,0-1.51,2.416l6.269,5.066a1.425,1.425,0,0,0,1.5-2.416Z" transform="translate(-4.73 -4.35)" fill="#15232e"/>
    <path id="Path_22" data-name="Path 22" d="M23.81,0H4.684A4.684,4.684,0,0,0,0,4.684V15.831a4.684,4.684,0,0,0,4.684,4.684H23.81a4.684,4.684,0,0,0,4.684-4.684V4.684A4.684,4.684,0,0,0,23.81,0Zm1.835,15.831a1.835,1.835,0,0,1-1.835,1.835H4.684a1.835,1.835,0,0,1-1.835-1.835V4.684A1.835,1.835,0,0,1,4.684,2.849H23.81a1.835,1.835,0,0,1,1.835,1.835Z" fill="#15232e"/>
  </g>
</svg>
