<svg xmlns="http://www.w3.org/2000/svg" width="21.991" height="18.934" viewBox="0 0 21.991 18.934">
  <g id="Group_42602" data-name="Group 42602" transform="translate(-5671.062 -5495.892)">
    <g id="Group_38991" data-name="Group 38991" transform="translate(5675.629 5495.892)">
      <g id="Group_38989" data-name="Group 38989" transform="translate(0 0)">
        <path id="Path_94556" data-name="Path 94556" d="M5703.472,5508.108l-2.6-2.3a.951.951,0,0,0-1.343.081l-3.524,3.977-.047.055-.024-.021-2.038-1.895,3.966-3.641.188.182a.743.743,0,1,0,1.119-.979l-.257-.249a2.077,2.077,0,0,0,.155-2.085l-.479-.981-.7-1.421-.871-1.782a2.091,2.091,0,0,0-2.8-.946,2.183,2.183,0,0,0-.346.218l-.045.038a.448.448,0,0,0-.06.048l-.979.866.006.006.018-.015.116.134.063.053-.006.01-.057-.063-.134-.119-.144.125,0-.006.141-.125-.914-.809a2.159,2.159,0,0,0-.449-.3,2.091,2.091,0,0,0-2.8.943l-.871,1.781-.7,1.431-.478.975a2.085,2.085,0,0,0,.489,2.473l.188.167,0,0,4.391,4.111-2.065,1.826-.3.267a.78.78,0,0,0-.083,1.1l.015.019a.753.753,0,0,0,1.024.029l.33-.3,2.172-1.922,2.206,1.956.029.026a.945.945,0,0,0,.158,1.238l2.6,2.3a.953.953,0,0,0,1.343-.081l4.477-5.055A.95.95,0,0,0,5703.472,5508.108Zm-14.228-4.424-1.124-.994-.01.006a.684.684,0,0,1-.152-.8l.018-.04.8-1.641,1.138-2.333a.691.691,0,0,1,.1-.156.684.684,0,0,1,.961-.056l.687.608-2.561,2.247a.745.745,0,1,0,.982,1.119l3.708-3.252,0,0,.874-.773a.708.708,0,0,1,.215-.13.679.679,0,0,1,.746.185.671.671,0,0,1,.1.158l1.128,2.31.8,1.635.032.066a.7.7,0,0,1,.069.373.691.691,0,0,1-.221.435l-.084.072-.054.048-.614.566-3.986,3.659Zm12.613,5.433-3.318,3.746a.335.335,0,0,1-.471.027l-1.286-1.141a.334.334,0,0,1-.03-.471l3.318-3.742a.332.332,0,0,1,.471-.03l1.286,1.141A.329.329,0,0,1,5701.857,5509.116Z" transform="translate(-5686.369 -5495.891)" fill="#15232e"/>
        <path id="Path_94557" data-name="Path 94557" d="M5707.573,5500.542l-.143.125,0-.006.14-.125Z" transform="translate(-5701.144 -5499.149)" fill="#15232e"/>
        <path id="Path_94558" data-name="Path 94558" d="M5708.051,5500.64l-.134-.12.018-.015Z" transform="translate(-5701.487 -5499.129)" fill="#15232e"/>
        <path id="Path_94559" data-name="Path 94559" d="M5708.429,5501.009l-.005.009-.058-.062Z" transform="translate(-5701.802 -5499.445)" fill="#15232e"/>
      </g>
      <g id="Group_38990" data-name="Group 38990" transform="translate(6.283 1.385)">
        <path id="Path_94560" data-name="Path 94560" d="M5707.573,5500.542l-.143.125,0-.006.14-.125Z" transform="translate(-5707.427 -5500.535)" fill="#15232e"/>
        <path id="Path_94561" data-name="Path 94561" d="M5708.429,5501.009l-.005.009-.058-.062Z" transform="translate(-5708.085 -5500.83)" fill="#15232e"/>
      </g>
      <path id="Path_94562" data-name="Path 94562" d="M5708.051,5500.64l-.134-.12.018-.015Z" transform="translate(-5701.487 -5499.129)" fill="#15232e"/>
    </g>
    <path id="Path_100400" data-name="Path 100400" d="M5679.833,5533.747a.325.325,0,0,0-.035-.045l-.953-1.074-3.523-3.978a.95.95,0,0,0-1.342-.081l-2.6,2.3a.949.949,0,0,0-.081,1.343l4.476,5.054a.952.952,0,0,0,1.343.081l2.6-2.3A.949.949,0,0,0,5679.833,5533.747Zm-1.761.761-1.285,1.14a.334.334,0,0,1-.472-.028l-3.318-3.744a.336.336,0,0,1,.029-.471l1.287-1.14a.331.331,0,0,1,.471.03l3.318,3.742A.332.332,0,0,1,5678.072,5534.508Z" transform="translate(-0.001 -22.759)" fill="#15bf81"/>
  </g>
</svg>
