<svg xmlns="http://www.w3.org/2000/svg" width="64.612" height="54.39" viewBox="0 0 64.612 54.39">
  <g id="Group_49539" data-name="Group 49539" transform="translate(6.612 9.39)">
    <g id="Group_42514" data-name="Group 42514" transform="translate(4.824 0)">
      <rect id="Rectangle_14743" data-name="Rectangle 14743" width="53" height="45" rx="6" transform="translate(0.176)" fill="#e9f7f2"/>
    </g>
    <g id="Group_49540" data-name="Group 49540" transform="translate(-529 -4404.841)">
      <path id="Path_116991" data-name="Path 116991" d="M-24.612-16.464a20.635,20.635,0,0,0,3.36,11.676A12.644,12.644,0,0,0-10.584.42C-1.134.42,3.57-7.938,3.57-16.632c0-6.006-1.932-11.13-6.3-14.322a12.391,12.391,0,0,0-7.728-2.436,12.826,12.826,0,0,0-7.9,2.478,14.361,14.361,0,0,0-4.788,6.174A22.664,22.664,0,0,0-24.612-16.464Zm7.518-4.7A9.629,9.629,0,0,1-14.7-25.116a5.555,5.555,0,0,1,4.158-1.764,5.555,5.555,0,0,1,4.158,1.764c3.318,3.318,3.7,8.82,2.394,13.23A9.921,9.921,0,0,1-6.384-7.854a5.675,5.675,0,0,1-4.158,1.722A5.675,5.675,0,0,1-14.7-7.854C-18.018-11.256-18.4-16.884-17.094-21.168ZM16-24.78V0h6.8V-32.886H17.22L6.048-26.334l3.024,5.5Z" transform="translate(547 4428.84)" fill="#4ca473"/>
    </g>
  </g>
</svg>
