<svg xmlns="http://www.w3.org/2000/svg" width="41" height="41" viewBox="0 0 41 41">
  <g id="Group_8258" data-name="Group 8258" transform="translate(0.323 -0.246)">
    <g id="Ellipse_3289" data-name="Ellipse 3289" transform="translate(-0.323 0.245)" fill="none" stroke="#fff" stroke-width="2">
      <circle cx="20.5" cy="20.5" r="20.5" stroke="none"/>
      <circle cx="20.5" cy="20.5" r="19.5" fill="none"/>
    </g>
    <g id="play_1_" data-name="play (1)" transform="translate(13.777 12.149)">
      <g id="Group_7454" data-name="Group 7454" transform="translate(0 0)">
        <path id="Path_19101" data-name="Path 19101" d="M49.215,6.905,38.618.373a2.45,2.45,0,0,0-3.735,2.086v13a2.475,2.475,0,0,0,2.445,2.482h.011a2.459,2.459,0,0,0,1.271-.382.7.7,0,1,0-.729-1.194,1.074,1.074,0,0,1-.545.177,1.087,1.087,0,0,1-1.053-1.083v-13a1.051,1.051,0,0,1,1.6-.9L48.481,8.1a1.051,1.051,0,0,1,0,1.793l-7.662,4.691a.7.7,0,1,0,.731,1.193l7.661-4.691A2.45,2.45,0,0,0,49.215,6.9Z" transform="translate(-34.883 -0.009)" fill="#fff"/>
      </g>
    </g>
  </g>
</svg>
