<svg xmlns="http://www.w3.org/2000/svg" xmlns:xlink="http://www.w3.org/1999/xlink" width="361.032" height="215.981" viewBox="0 0 361.032 215.981">
  <defs>
    <linearGradient id="linear-gradient" x1="0.498" y1="-0.033" x2="0.5" y2="1.002" gradientUnits="objectBoundingBox">
      <stop offset="0" stop-color="#ebebeb"/>
      <stop offset="1" stop-color="#efefef" stop-opacity="0"/>
    </linearGradient>
  </defs>
  <g id="Group_3181" data-name="Group 3181" transform="translate(-842 -341)">
    <path id="Path_8103" data-name="Path 8103" d="M443.192,456.693s155.566-154.98,361.032,0Z" transform="translate(398.808 100.288)" fill="url(#linear-gradient)"/>
    <g id="Group_3180" data-name="Group 3180" transform="translate(940.093 341)">
      <g id="Group_2787" data-name="Group 2787" transform="translate(12.4)">
        <g id="Group_2782" data-name="Group 2782" transform="translate(0 14.382)">
          <path id="Path_8092" data-name="Path 8092" d="M813.017,57.172c.385-2.8-3.563-5.1-6.53-5.338-1.415-.114-2.885.1-4.225-.365-2.9-1.012-4.064-4.764-6.9-5.959-2.118-.893-4.558-.1-6.611.936s-4.083,2.335-6.378,2.481c-2,.128-4.163-.613-5.909.362-1.3.727-1.983,2.226-3.182,3.11a7.588,7.588,0,0,1-4.16,1.128,11.723,11.723,0,0,0-4.288.7,3.389,3.389,0,0,0-2.147,3.44Z" transform="translate(-762.646 -45.122)" fill="#ebebeb"/>
        </g>
        <g id="Group_2783" data-name="Group 2783" transform="translate(47.109 51.937)">
          <path id="Path_8093" data-name="Path 8093" d="M889.125,151.327c-.049.026-1.172-2.021-2.508-4.57s-2.379-4.639-2.33-4.664,1.172,2.02,2.508,4.571S889.174,151.3,889.125,151.327Z" transform="translate(-884.286 -142.092)" fill="#ebebeb"/>
        </g>
        <g id="Group_2784" data-name="Group 2784" transform="translate(66.629 58.784)">
          <path id="Path_8094" data-name="Path 8094" d="M939.525,169.007c-.05.026-1.172-2.02-2.508-4.57s-2.379-4.639-2.329-4.664,1.172,2.02,2.508,4.571S939.574,168.982,939.525,169.007Z" transform="translate(-934.686 -159.772)" fill="#ebebeb"/>
        </g>
        <g id="Group_2785" data-name="Group 2785" transform="translate(55.022)">
          <path id="Path_8095" data-name="Path 8095" d="M962.456,21.8c.442-3.207-4.085-5.845-7.485-6.119-1.622-.131-3.306.117-4.843-.418-3.329-1.16-4.659-5.461-7.907-6.831C939.793,7.407,937,8.319,934.643,9.5s-4.681,2.676-7.311,2.844c-2.288.146-4.772-.7-6.774.416-1.491.833-2.273,2.551-3.647,3.565a8.7,8.7,0,0,1-4.768,1.293,13.421,13.421,0,0,0-4.916.8c-1.52.7-2.777,2.3-2.462,3.944Z" transform="translate(-904.716 -7.987)" fill="#f5f5f5"/>
        </g>
        <g id="Group_2786" data-name="Group 2786" transform="translate(65.075 25.528)">
          <path id="Path_8096" data-name="Path 8096" d="M965.225,82.167c.264-1.919-2.444-3.5-4.479-3.661a11.528,11.528,0,0,1-2.9-.25c-1.992-.694-2.788-3.268-4.731-4.087-1.453-.613-3.126-.067-4.535.642a11.84,11.84,0,0,1-4.375,1.7c-1.369.088-2.855-.42-4.053.249-.892.5-1.36,1.527-2.182,2.134a5.208,5.208,0,0,1-2.853.774,8.035,8.035,0,0,0-2.942.481,2.324,2.324,0,0,0-1.472,2.36Z" transform="translate(-930.675 -73.903)" fill="#fafafa"/>
        </g>
      </g>
      <g id="Group_2817" data-name="Group 2817" transform="translate(1.846 92.203)">
        <g id="Group_2791" data-name="Group 2791">
          <g id="Group_2790" data-name="Group 2790">
            <g id="Group_2789" data-name="Group 2789">
              <g id="Group_2788" data-name="Group 2788">
                <path id="Path_8097" data-name="Path 8097" d="M759.951,300.157c8.056-3.8,11.279-12.861,12.423-21.3.191-1.409.6-2.859.14-4.2a2.893,2.893,0,0,0-3.224-2.07c-1.124.313-1.783,1.445-2.536,2.347a8.311,8.311,0,0,1-3.82,2.578,3.166,3.166,0,0,1-2.921-.23c-1.094-.872-.953-2.566-.707-3.958q.688-3.891,1.375-7.781a13.166,13.166,0,0,0,.285-4.209,4.384,4.384,0,0,0-2.218-3.385,2.659,2.659,0,0,0-3.544,1.2,13.078,13.078,0,0,0-.335,1.728,1.486,1.486,0,0,1-1.092,1.233c-.584.069-1.074-.421-1.421-.9a18.781,18.781,0,0,1-2.471-5.587,26.1,26.1,0,0,0-2.22-5.71,7.641,7.641,0,0,0-4.617-3.733,4.576,4.576,0,0,0-5.15,2.29c-.84,1.878-.034,4.066.943,5.868a31.541,31.541,0,0,0,5.424,7.275,2.6,2.6,0,0,1,.885,1.349c.144.981-.893,1.753-1.862,1.9a16.319,16.319,0,0,1-3.314-.188,3.178,3.178,0,0,0-2.952,1.178c-.813,1.327.123,3.022,1.128,4.2a27.031,27.031,0,0,0,7.109,5.894,9.109,9.109,0,0,1,2.687,1.923,2.615,2.615,0,0,1,.323,3.094,2.663,2.663,0,0,1-3.042.611,18.8,18.8,0,0,1-2.858-1.689c-1.792-1.049-4.286-1.338-5.795.108a4.472,4.472,0,0,0-1.133,3.819,10.3,10.3,0,0,0,1.526,3.8,27.171,27.171,0,0,0,10.07,9.987c4.179,2.3,8.223,3.414,12.912,2.552" transform="translate(-735.394 -246.063)" fill="#f5f5f5"/>
              </g>
            </g>
          </g>
        </g>
        <g id="Group_2796" data-name="Group 2796" transform="translate(4.845 0.839)">
          <g id="Group_2795" data-name="Group 2795">
            <g id="Group_2794" data-name="Group 2794">
              <g id="Group_2793" data-name="Group 2793">
                <g id="Group_2792" data-name="Group 2792">
                  <path id="Path_8098" data-name="Path 8098" d="M766.346,295.855a126.545,126.545,0,0,0-2.666-14.285l-.891-3.709c-.3-1.216-.588-2.423-.947-3.585a63.223,63.223,0,0,0-2.447-6.56c-.879-2.049-1.788-3.962-2.652-5.743s-1.707-3.426-2.536-4.892a50.233,50.233,0,0,0-4.424-6.621c-.581-.738-1.051-1.3-1.375-1.67l-.371-.423a1.025,1.025,0,0,0-.133-.138.965.965,0,0,0,.113.155l.351.44c.31.385.767.952,1.335,1.7a53.029,53.029,0,0,1,4.343,6.65c.817,1.468,1.645,3.113,2.5,4.9s1.755,3.7,2.626,5.744a63.881,63.881,0,0,1,2.423,6.54c.356,1.156.645,2.352.94,3.572s.589,2.455.89,3.707a129.711,129.711,0,0,1,2.682,14.253" transform="translate(-747.903 -248.23)" fill="#e0e0e0"/>
                </g>
              </g>
            </g>
          </g>
        </g>
        <g id="Group_2801" data-name="Group 2801" transform="translate(18.707 11.882)">
          <g id="Group_2800" data-name="Group 2800">
            <g id="Group_2799" data-name="Group 2799">
              <g id="Group_2798" data-name="Group 2798">
                <g id="Group_2797" data-name="Group 2797">
                  <path id="Path_8099" data-name="Path 8099" d="M783.7,291.725a2.86,2.86,0,0,0,.237-.571c.139-.373.322-.918.538-1.6.433-1.354.968-3.244,1.549-5.329s1.142-3.963,1.594-5.307c.225-.672.412-1.215.546-1.588a2.832,2.832,0,0,0,.181-.591,2.79,2.79,0,0,0-.275.554c-.163.362-.377.9-.624,1.563-.5,1.333-1.089,3.209-1.671,5.3l-1.476,5.346c-.181.642-.335,1.183-.458,1.617A2.838,2.838,0,0,0,783.7,291.725Z" transform="translate(-783.698 -276.744)" fill="#e0e0e0"/>
                </g>
              </g>
            </g>
          </g>
        </g>
        <g id="Group_2806" data-name="Group 2806" transform="translate(1.368 20.461)">
          <g id="Group_2805" data-name="Group 2805">
            <g id="Group_2804" data-name="Group 2804">
              <g id="Group_2803" data-name="Group 2803">
                <g id="Group_2802" data-name="Group 2802">
                  <path id="Path_8100" data-name="Path 8100" d="M738.927,298.9a3.9,3.9,0,0,0,.7.208c.452.119,1.108.288,1.912.523,1.611.456,3.813,1.165,6.209,2.053s4.528,1.792,6.052,2.488c.765.342,1.376.636,1.8.837a3.89,3.89,0,0,0,.67.291,3.907,3.907,0,0,0-.624-.382c-.411-.228-1.011-.549-1.768-.914-1.508-.74-3.637-1.671-6.039-2.567a64.044,64.044,0,0,0-6.251-1.985c-.812-.212-1.477-.355-1.938-.443A3.89,3.89,0,0,0,738.927,298.9Z" transform="translate(-738.927 -298.894)" fill="#e0e0e0"/>
                </g>
              </g>
            </g>
          </g>
        </g>
        <g id="Group_2811" data-name="Group 2811" transform="translate(23.122 26.756)">
          <g id="Group_2810" data-name="Group 2810">
            <g id="Group_2809" data-name="Group 2809">
              <g id="Group_2808" data-name="Group 2808">
                <g id="Group_2807" data-name="Group 2807">
                  <path id="Path_8101" data-name="Path 8101" d="M795.1,336.49a.927.927,0,0,0,.16-.2l.417-.6c.36-.519.861-1.283,1.467-2.236,1.214-1.905,2.807-4.589,4.526-7.574s3.286-5.682,4.458-7.609L807.52,316l.376-.622a.128.128,0,1,0-.044-.029l-.416.6c-.36.519-.86,1.284-1.467,2.237-1.214,1.9-2.807,4.589-4.527,7.575s-3.285,5.681-4.458,7.608l-1.4,2.279-.376.622A.951.951,0,0,0,795.1,336.49Z" transform="translate(-795.097 -315.148)" fill="#e0e0e0"/>
                </g>
              </g>
            </g>
          </g>
        </g>
        <g id="Group_2816" data-name="Group 2816" transform="translate(0.627 36.371)">
          <g id="Group_2815" data-name="Group 2815">
            <g id="Group_2814" data-name="Group 2814">
              <g id="Group_2813" data-name="Group 2813">
                <g id="Group_2812" data-name="Group 2812">
                  <path id="Path_8102" data-name="Path 8102" d="M737.013,339.976a.982.982,0,0,0,.22.137l.652.349,2.408,1.26c2.033,1.065,4.825,2.567,7.907,4.231s5.891,3.143,7.947,4.166c1.028.512,1.864.917,2.447,1.186l.674.305a.951.951,0,0,0,.242.09.986.986,0,0,0-.22-.138l-.652-.349-2.408-1.26c-2.033-1.064-4.825-2.567-7.908-4.232s-5.89-3.142-7.946-4.165c-1.028-.512-1.864-.917-2.447-1.186l-.673-.305A.945.945,0,0,0,737.013,339.976Z" transform="translate(-737.013 -339.975)" fill="#e0e0e0"/>
                </g>
              </g>
            </g>
          </g>
        </g>
      </g>
      <g id="Group_2989" data-name="Group 2989" transform="translate(0 41.753)">
        <g id="Group_2827" data-name="Group 2827" transform="translate(0 87.09)">
          <g id="Group_2826" data-name="Group 2826">
            <g id="Group_2823" data-name="Group 2823">
              <path id="Path_8104" data-name="Path 8104" d="M755.062,340.669l-7.81,12.139s-14.962-3.862-16.624-1.759l22.993,15.99,12.946-18.415Z" transform="translate(-730.627 -340.669)" fill="#0083ff"/>
              <path id="Path_8105" data-name="Path 8105" d="M755.062,340.669l-7.81,12.139s-14.962-3.862-16.624-1.759l22.993,15.99,12.946-18.415Z" transform="translate(-730.627 -340.669)" opacity="0.3"/>
              <g id="Group_2818" data-name="Group 2818" transform="translate(22.565 15.721)">
                <path id="Path_8106" data-name="Path 8106" d="M790.753,381.629a1.143,1.143,0,0,1-.1,1.523,1.1,1.1,0,0,1-1.51-.082,1.206,1.206,0,0,1,.11-1.612,1.141,1.141,0,0,1,1.562.259" transform="translate(-788.89 -381.263)" fill="#e0e0e0"/>
              </g>
              <path id="Path_8107" data-name="Path 8107" d="M753.621,382.547l1.287-1.831-22.561-14.694s-1.333-.266-1.719.535Z" transform="translate(-730.627 -356.177)" fill="#e0e0e0"/>
              <g id="Group_2819" data-name="Group 2819" transform="translate(16.326 11.74)">
                <path id="Path_8108" data-name="Path 8108" d="M772.788,371.005c-.074.115.452.557.753,1.3.321.737.267,1.422.4,1.449.118.05.418-.737.037-1.633S772.835,370.886,772.788,371.005Z" transform="translate(-772.781 -370.982)" fill="#263238"/>
              </g>
              <g id="Group_2820" data-name="Group 2820" transform="translate(13.209 11.07)">
                <path id="Path_8109" data-name="Path 8109" d="M764.752,369.265c-.1.091.252.62.3,1.361.073.738-.188,1.319-.073,1.392.093.091.628-.512.547-1.431S764.829,369.16,764.752,369.265Z" transform="translate(-764.734 -369.252)" fill="#263238"/>
              </g>
              <g id="Group_2821" data-name="Group 2821" transform="translate(9.829 10.476)">
                <path id="Path_8110" data-name="Path 8110" d="M756.027,370.26c.086.095.632-.357.771-1.173s-.216-1.425-.328-1.365c-.128.048-.016.615-.141,1.283C756.22,369.676,755.923,370.171,756.027,370.26Z" transform="translate(-756.005 -367.718)" fill="#263238"/>
              </g>
              <g id="Group_2822" data-name="Group 2822" transform="translate(18.419 9.128)">
                <path id="Path_8111" data-name="Path 8111" d="M778.187,364.3c-.024.135.6.339,1.2.823s.96,1.029,1.085.973c.122-.036-.071-.787-.792-1.348S778.193,364.178,778.187,364.3Z" transform="translate(-778.186 -364.238)" fill="#263238"/>
              </g>
            </g>
            <g id="Group_2824" data-name="Group 2824" transform="translate(20.018 6.38)">
              <path id="Path_8112" data-name="Path 8112" d="M782.338,357.536c-.033.046.362.424,1.156.8a6.287,6.287,0,0,0,1.462.467,6.581,6.581,0,0,0,.9.109,1.735,1.735,0,0,0,.536-.029.6.6,0,0,0,.467-.562.75.75,0,0,0-.313-.6,1.835,1.835,0,0,0-.473-.241,5.053,5.053,0,0,0-.887-.252,4.947,4.947,0,0,0-1.547-.041,2.341,2.341,0,0,0-1.327.464c.025.072.529-.1,1.356-.129a5.6,5.6,0,0,1,1.43.136,5.217,5.217,0,0,1,.8.256c.288.105.5.248.484.4-.006.057-.015.076-.115.112a1.411,1.411,0,0,1-.393.02,7.4,7.4,0,0,1-.85-.076,7.748,7.748,0,0,1-1.41-.347A9.716,9.716,0,0,0,782.338,357.536Z" transform="translate(-782.316 -357.142)" fill="#263238"/>
            </g>
            <g id="Group_2825" data-name="Group 2825" transform="translate(19.741 2.661)">
              <path id="Path_8113" data-name="Path 8113" d="M781.934,351.915c.028.045.53-.2,1.077-.9a4.537,4.537,0,0,0,.912-2.273,1.158,1.158,0,0,0-.33-1.092.656.656,0,0,0-.7-.013,1.9,1.9,0,0,0-.412.34,3.116,3.116,0,0,0-.54.775,3.229,3.229,0,0,0-.335,1.532c.035.908.41,1.368.446,1.337a11.487,11.487,0,0,1-.109-1.331,3.229,3.229,0,0,1,.388-1.335,2.9,2.9,0,0,1,.484-.651c.206-.22.434-.353.509-.264a.8.8,0,0,1,.14.657,4.644,4.644,0,0,1-.149.823,5.045,5.045,0,0,1-.576,1.3C782.3,351.519,781.884,351.856,781.934,351.915Z" transform="translate(-781.599 -347.539)" fill="#263238"/>
            </g>
          </g>
        </g>
        <g id="Group_2837" data-name="Group 2837" transform="translate(2.415 98.295)">
          <g id="Group_2836" data-name="Group 2836">
            <g id="Group_2833" data-name="Group 2833">
              <path id="Path_8114" data-name="Path 8114" d="M761.3,369.6l-7.81,12.139s-14.962-3.862-16.624-1.759l22.994,15.99L772.8,377.556Z" transform="translate(-736.862 -369.601)" fill="#0083ff"/>
              <g id="Group_2828" data-name="Group 2828" transform="translate(22.565 15.721)">
                <path id="Path_8115" data-name="Path 8115" d="M796.988,410.561a1.143,1.143,0,0,1-.1,1.523,1.1,1.1,0,0,1-1.51-.082,1.206,1.206,0,0,1,.11-1.612,1.141,1.141,0,0,1,1.562.259" transform="translate(-795.126 -410.195)" fill="#e0e0e0"/>
              </g>
              <path id="Path_8116" data-name="Path 8116" d="M759.856,411.479l1.287-1.831-22.561-14.694s-1.333-.266-1.719.535Z" transform="translate(-736.862 -385.11)" fill="#e0e0e0"/>
              <g id="Group_2829" data-name="Group 2829" transform="translate(16.326 11.74)">
                <path id="Path_8117" data-name="Path 8117" d="M779.023,399.937c-.074.115.452.557.753,1.3.321.737.267,1.422.4,1.449.119.05.418-.737.037-1.633S779.07,399.818,779.023,399.937Z" transform="translate(-779.016 -399.914)" fill="#263238"/>
              </g>
              <g id="Group_2830" data-name="Group 2830" transform="translate(13.209 11.07)">
                <path id="Path_8118" data-name="Path 8118" d="M770.987,398.2c-.1.091.252.62.3,1.36.073.738-.188,1.319-.073,1.392.093.091.628-.512.547-1.431S771.064,398.093,770.987,398.2Z" transform="translate(-770.969 -398.185)" fill="#263238"/>
              </g>
              <g id="Group_2831" data-name="Group 2831" transform="translate(9.829 10.476)">
                <path id="Path_8119" data-name="Path 8119" d="M762.262,399.192c.086.095.632-.357.771-1.173s-.215-1.425-.328-1.365c-.128.048-.016.615-.141,1.283C762.455,398.608,762.158,399.1,762.262,399.192Z" transform="translate(-762.24 -396.65)" fill="#263238"/>
              </g>
              <g id="Group_2832" data-name="Group 2832" transform="translate(18.419 9.128)">
                <path id="Path_8120" data-name="Path 8120" d="M784.422,393.236c-.024.135.6.339,1.2.823s.96,1.029,1.086.973c.121-.036-.072-.787-.792-1.348S784.428,393.11,784.422,393.236Z" transform="translate(-784.421 -393.17)" fill="#263238"/>
              </g>
            </g>
            <g id="Group_2834" data-name="Group 2834" transform="translate(20.018 6.38)">
              <path id="Path_8121" data-name="Path 8121" d="M788.573,386.469c-.034.046.362.424,1.156.8a6.29,6.29,0,0,0,1.462.467,6.57,6.57,0,0,0,.906.109,1.733,1.733,0,0,0,.536-.029.6.6,0,0,0,.467-.562.75.75,0,0,0-.313-.6,1.84,1.84,0,0,0-.473-.241,5.051,5.051,0,0,0-.887-.252,4.946,4.946,0,0,0-1.547-.041,2.341,2.341,0,0,0-1.327.464c.025.072.529-.1,1.356-.129a5.6,5.6,0,0,1,1.429.135,5.211,5.211,0,0,1,.8.256c.288.105.5.248.484.4-.006.057-.014.076-.115.112a1.413,1.413,0,0,1-.393.02,7.414,7.414,0,0,1-.85-.076,7.754,7.754,0,0,1-1.41-.347A9.752,9.752,0,0,0,788.573,386.469Z" transform="translate(-788.551 -386.074)" fill="#263238"/>
            </g>
            <g id="Group_2835" data-name="Group 2835" transform="translate(19.741 2.661)">
              <path id="Path_8122" data-name="Path 8122" d="M788.169,380.847c.028.045.53-.2,1.077-.9a4.535,4.535,0,0,0,.913-2.273,1.16,1.16,0,0,0-.33-1.092.656.656,0,0,0-.7-.013,1.9,1.9,0,0,0-.412.34,3.125,3.125,0,0,0-.54.775,3.232,3.232,0,0,0-.335,1.532c.035.908.411,1.368.446,1.337a11.526,11.526,0,0,1-.11-1.331,3.235,3.235,0,0,1,.389-1.335,2.881,2.881,0,0,1,.484-.651c.206-.22.435-.353.509-.264a.8.8,0,0,1,.141.657,4.667,4.667,0,0,1-.149.823,5.047,5.047,0,0,1-.576,1.3C788.532,380.451,788.119,380.788,788.169,380.847Z" transform="translate(-787.835 -376.471)" fill="#263238"/>
            </g>
          </g>
        </g>
        <g id="Group_2841" data-name="Group 2841" transform="translate(18.469 55.158)">
          <path id="Path_8123" data-name="Path 8123" d="M791.445,303.816s6.72-12.618,5.808-11.359c-2.482,3.427,12.1-17.362,18.726-28.01a13.2,13.2,0,0,1,9.72-6.145h0a13.2,13.2,0,0,1,10.942,3.9l37.633,38.616,17.5,10.192s-4.307,9.189-18.187,11.117-22.425-9.315-29.427-16.473a211.271,211.271,0,0,1-16.517-19.774l-21.932,28.949S792.143,304.641,791.445,303.816Z" transform="translate(-786.36 -258.217)" fill="#263238"/>
          <path id="Path_8124" data-name="Path 8124" d="M810.385,264.339h0a22.042,22.042,0,0,0-12.73,8.545l-19.339,26.574,9.326,6.393Z" transform="translate(-778.316 -261.968)" fill="#263238"/>
          <g id="Group_2838" data-name="Group 2838" transform="translate(5.084 5.387)">
            <path id="Path_8125" data-name="Path 8125" d="M815.2,272.127a.536.536,0,0,1-.073.1l-.228.271-.376.435c-.146.174-.294.392-.472.627-.721.936-1.651,2.374-2.785,4.157-2.235,3.589-5.162,8.646-8.329,14.269L794.848,306.4l-2.471,4.357-.682,1.179-.182.3a.538.538,0,0,1-.068.1.53.53,0,0,1,.05-.11l.164-.314.649-1.2,2.415-4.389c2.046-3.7,4.865-8.821,8.037-14.445s6.116-10.672,8.384-14.246c1.151-1.776,2.1-3.2,2.844-4.128.184-.232.336-.447.488-.617l.392-.424.244-.258A.549.549,0,0,1,815.2,272.127Z" transform="translate(-791.444 -272.127)" fill="#455a64"/>
          </g>
          <g id="Group_2839" data-name="Group 2839" transform="translate(40.611 20.602)">
            <path id="Path_8126" data-name="Path 8126" d="M883.308,311.412a7.449,7.449,0,0,1,.026,1.067,23.844,23.844,0,0,0,.575,5.086,7.525,7.525,0,0,1,.214,1.046,4.513,4.513,0,0,1-.352-1.012,16.888,16.888,0,0,1-.579-5.123A4.529,4.529,0,0,1,883.308,311.412Z" transform="translate(-883.176 -311.412)" fill="#455a64"/>
          </g>
          <g id="Group_2840" data-name="Group 2840" transform="translate(41.587 19.787)">
            <path id="Path_8127" data-name="Path 8127" d="M887.42,309.31a8.661,8.661,0,0,1-.324,1.132c-.211.694-.482,1.658-.719,2.737s-.391,2.069-.488,2.788a8.707,8.707,0,0,1-.177,1.163,5.6,5.6,0,0,1,.035-1.179,22.76,22.76,0,0,1,1.213-5.554A5.628,5.628,0,0,1,887.42,309.31Z" transform="translate(-885.696 -309.31)" fill="#455a64"/>
          </g>
        </g>
        <g id="Group_2967" data-name="Group 2967" transform="translate(65.582)">
          <g id="Group_2964" data-name="Group 2964">
            <g id="Group_2963" data-name="Group 2963">
              <g id="Group_2957" data-name="Group 2957" transform="translate(0 1.149)">
                <g id="Group_2956" data-name="Group 2956">
                  <g id="Group_2862" data-name="Group 2862">
                    <g id="Group_2861" data-name="Group 2861">
                      <g id="Group_2860" data-name="Group 2860">
                        <g id="Group_2850" data-name="Group 2850">
                          <g id="Group_2849" data-name="Group 2849">
                            <g id="Group_2848" data-name="Group 2848">
                              <g id="Group_2847" data-name="Group 2847">
                                <g id="Group_2846" data-name="Group 2846">
                                  <g id="Group_2845" data-name="Group 2845">
                                    <g id="Group_2844" data-name="Group 2844">
                                      <g id="Group_2843" data-name="Group 2843">
                                        <g id="Group_2842" data-name="Group 2842">
                                          <path id="Path_8128" data-name="Path 8128" d="M921.576,126.993l10.074,23.53a7.614,7.614,0,0,1-4.352,10.136h0a7.618,7.618,0,0,1-9.652-4.153c-.756-1.772-1.391-3.248-1.481-3.425,0,0-6.231,2-9.2-3.742-1.436-2.775-3.927-8.733-6.119-14.148a12.044,12.044,0,0,1,5.77-15.279l.558-.28C913.362,116.966,919.083,120.733,921.576,126.993Z" transform="translate(-899.965 -118.764)" fill="#ffbe9d"/>
                                        </g>
                                      </g>
                                    </g>
                                  </g>
                                </g>
                              </g>
                            </g>
                          </g>
                        </g>
                        <g id="Group_2859" data-name="Group 2859" transform="translate(16.15 28.316)">
                          <g id="Group_2858" data-name="Group 2858">
                            <g id="Group_2857" data-name="Group 2857">
                              <g id="Group_2856" data-name="Group 2856">
                                <g id="Group_2855" data-name="Group 2855">
                                  <g id="Group_2854" data-name="Group 2854">
                                    <g id="Group_2853" data-name="Group 2853">
                                      <g id="Group_2852" data-name="Group 2852">
                                        <g id="Group_2851" data-name="Group 2851">
                                          <path id="Path_8129" data-name="Path 8129" d="M941.665,197.8a15.036,15.036,0,0,0,6.46-5.921s.306,5.053-5.722,7.425Z" transform="translate(-941.665 -191.879)" fill="#eb996e"/>
                                        </g>
                                      </g>
                                    </g>
                                  </g>
                                </g>
                              </g>
                            </g>
                          </g>
                        </g>
                      </g>
                    </g>
                  </g>
                  <g id="Group_2935" data-name="Group 2935" transform="translate(1.863 10.932)">
                    <g id="Group_2934" data-name="Group 2934">
                      <g id="Group_2915" data-name="Group 2915" transform="translate(1.382 1.917)">
                        <g id="Group_2914" data-name="Group 2914">
                          <g id="Group_2913" data-name="Group 2913">
                            <g id="Group_2882" data-name="Group 2882" transform="translate(0 4.074)">
                              <g id="Group_2871" data-name="Group 2871" transform="translate(1.122 1.805)">
                                <g id="Group_2870" data-name="Group 2870">
                                  <g id="Group_2869" data-name="Group 2869">
                                    <g id="Group_2868" data-name="Group 2868">
                                      <g id="Group_2867" data-name="Group 2867">
                                        <g id="Group_2866" data-name="Group 2866">
                                          <g id="Group_2865" data-name="Group 2865">
                                            <g id="Group_2864" data-name="Group 2864">
                                              <g id="Group_2863" data-name="Group 2863">
                                                <path id="Path_8130" data-name="Path 8130" d="M911.316,168.375a.924.924,0,0,0,1.214.434.883.883,0,0,0,.477-1.171.923.923,0,0,0-1.213-.435A.884.884,0,0,0,911.316,168.375Z" transform="translate(-911.239 -167.123)" fill="#263238"/>
                                              </g>
                                            </g>
                                          </g>
                                        </g>
                                      </g>
                                    </g>
                                  </g>
                                </g>
                              </g>
                              <g id="Group_2881" data-name="Group 2881">
                                <g id="Group_2880" data-name="Group 2880">
                                  <g id="Group_2879" data-name="Group 2879">
                                    <g id="Group_2878" data-name="Group 2878">
                                      <g id="Group_2877" data-name="Group 2877">
                                        <g id="Group_2876" data-name="Group 2876">
                                          <g id="Group_2875" data-name="Group 2875">
                                            <g id="Group_2874" data-name="Group 2874">
                                              <g id="Group_2873" data-name="Group 2873">
                                                <g id="Group_2872" data-name="Group 2872">
                                                  <path id="Path_8131" data-name="Path 8131" d="M908.392,164.413c.156.056.549-.72,1.439-1.163s1.763-.326,1.8-.483c.023-.072-.179-.214-.566-.278a2.53,2.53,0,0,0-1.511.253,2.43,2.43,0,0,0-1.078,1.06C908.313,164.149,908.318,164.39,908.392,164.413Z" transform="translate(-908.343 -162.461)" fill="#263238"/>
                                                </g>
                                              </g>
                                            </g>
                                          </g>
                                        </g>
                                      </g>
                                    </g>
                                  </g>
                                </g>
                              </g>
                            </g>
                            <g id="Group_2902" data-name="Group 2902" transform="translate(9.005)">
                              <g id="Group_2891" data-name="Group 2891" transform="translate(0.812 1.661)">
                                <g id="Group_2890" data-name="Group 2890">
                                  <g id="Group_2889" data-name="Group 2889">
                                    <g id="Group_2888" data-name="Group 2888">
                                      <g id="Group_2887" data-name="Group 2887">
                                        <g id="Group_2886" data-name="Group 2886">
                                          <g id="Group_2885" data-name="Group 2885">
                                            <g id="Group_2884" data-name="Group 2884">
                                              <g id="Group_2883" data-name="Group 2883">
                                                <path id="Path_8132" data-name="Path 8132" d="M933.767,157.483a.924.924,0,0,0,1.214.433.883.883,0,0,0,.477-1.171.924.924,0,0,0-1.213-.434A.884.884,0,0,0,933.767,157.483Z" transform="translate(-933.691 -156.231)" fill="#263238"/>
                                              </g>
                                            </g>
                                          </g>
                                        </g>
                                      </g>
                                    </g>
                                  </g>
                                </g>
                              </g>
                              <g id="Group_2901" data-name="Group 2901">
                                <g id="Group_2900" data-name="Group 2900">
                                  <g id="Group_2899" data-name="Group 2899">
                                    <g id="Group_2898" data-name="Group 2898">
                                      <g id="Group_2897" data-name="Group 2897">
                                        <g id="Group_2896" data-name="Group 2896">
                                          <g id="Group_2895" data-name="Group 2895">
                                            <g id="Group_2894" data-name="Group 2894">
                                              <g id="Group_2893" data-name="Group 2893">
                                                <g id="Group_2892" data-name="Group 2892">
                                                  <path id="Path_8133" data-name="Path 8133" d="M931.629,153.6c.148.076.64-.643,1.578-.966s1.79-.094,1.852-.244c.032-.068-.148-.235-.525-.349a2.537,2.537,0,0,0-1.531.054A2.438,2.438,0,0,0,931.8,153C931.585,153.323,931.558,153.563,931.629,153.6Z" transform="translate(-931.594 -151.943)" fill="#263238"/>
                                                </g>
                                              </g>
                                            </g>
                                          </g>
                                        </g>
                                      </g>
                                    </g>
                                  </g>
                                </g>
                              </g>
                            </g>
                            <g id="Group_2912" data-name="Group 2912" transform="translate(5.848 2.175)">
                              <g id="Group_2911" data-name="Group 2911">
                                <g id="Group_2910" data-name="Group 2910">
                                  <g id="Group_2909" data-name="Group 2909">
                                    <g id="Group_2908" data-name="Group 2908">
                                      <g id="Group_2907" data-name="Group 2907">
                                        <g id="Group_2906" data-name="Group 2906">
                                          <g id="Group_2905" data-name="Group 2905">
                                            <g id="Group_2904" data-name="Group 2904">
                                              <g id="Group_2903" data-name="Group 2903">
                                                <path id="Path_8134" data-name="Path 8134" d="M926.789,165.162a6.616,6.616,0,0,0-1.573.464c-.239.09-.476.153-.592.017a1.294,1.294,0,0,1-.186-.748q-.093-.984-.2-2.063a33.252,33.252,0,0,0-.76-5.273,33.179,33.179,0,0,0,.334,5.322q.12,1.078.229,2.059a1.469,1.469,0,0,0,.329.949.637.637,0,0,0,.539.144,1.73,1.73,0,0,0,.412-.14A6.446,6.446,0,0,0,926.789,165.162Z" transform="translate(-923.443 -157.559)" fill="#263238"/>
                                              </g>
                                            </g>
                                          </g>
                                        </g>
                                      </g>
                                    </g>
                                  </g>
                                </g>
                              </g>
                            </g>
                          </g>
                        </g>
                      </g>
                      <g id="Group_2924" data-name="Group 2924" transform="translate(9.291)">
                        <g id="Group_2923" data-name="Group 2923">
                          <g id="Group_2922" data-name="Group 2922">
                            <g id="Group_2921" data-name="Group 2921">
                              <g id="Group_2920" data-name="Group 2920">
                                <g id="Group_2919" data-name="Group 2919">
                                  <g id="Group_2918" data-name="Group 2918">
                                    <g id="Group_2917" data-name="Group 2917">
                                      <g id="Group_2916" data-name="Group 2916">
                                        <path id="Path_8135" data-name="Path 8135" d="M933.312,147.094c-.141-.251-1.1.036-2.272.087-1.172.074-2.155-.11-2.268.154-.05.125.153.35.571.546a3.952,3.952,0,0,0,3.459-.183C933.2,147.458,933.374,147.213,933.312,147.094Z" transform="translate(-928.764 -146.992)" fill="#263238"/>
                                      </g>
                                    </g>
                                  </g>
                                </g>
                              </g>
                            </g>
                          </g>
                        </g>
                      </g>
                      <g id="Group_2933" data-name="Group 2933" transform="translate(0 4.696)">
                        <g id="Group_2932" data-name="Group 2932">
                          <g id="Group_2931" data-name="Group 2931">
                            <g id="Group_2930" data-name="Group 2930">
                              <g id="Group_2929" data-name="Group 2929">
                                <g id="Group_2928" data-name="Group 2928">
                                  <g id="Group_2927" data-name="Group 2927">
                                    <g id="Group_2926" data-name="Group 2926">
                                      <g id="Group_2925" data-name="Group 2925">
                                        <path id="Path_8136" data-name="Path 8136" d="M907.521,159.128c-.27-.091-.711.482-1.391.946-.664.488-1.351.713-1.354,1,0,.134.221.262.593.272a2.438,2.438,0,0,0,2.213-1.567C907.695,159.424,907.646,159.177,907.521,159.128Z" transform="translate(-904.775 -159.118)" fill="#263238"/>
                                      </g>
                                    </g>
                                  </g>
                                </g>
                              </g>
                            </g>
                          </g>
                        </g>
                      </g>
                    </g>
                  </g>
                  <g id="Group_2955" data-name="Group 2955" transform="translate(23.286 11.533)">
                    <g id="Group_2944" data-name="Group 2944">
                      <g id="Group_2943" data-name="Group 2943">
                        <g id="Group_2942" data-name="Group 2942">
                          <g id="Group_2941" data-name="Group 2941">
                            <g id="Group_2940" data-name="Group 2940">
                              <g id="Group_2939" data-name="Group 2939">
                                <g id="Group_2938" data-name="Group 2938">
                                  <g id="Group_2937" data-name="Group 2937">
                                    <g id="Group_2936" data-name="Group 2936">
                                      <path id="Path_8137" data-name="Path 8137" d="M960.091,149.755c.077-.092,3.382-3.167,5.238.847s-2.557,5.05-2.617,4.938S960.091,149.755,960.091,149.755Z" transform="translate(-960.091 -148.543)" fill="#ffbe9d"/>
                                    </g>
                                  </g>
                                </g>
                              </g>
                            </g>
                          </g>
                        </g>
                      </g>
                    </g>
                    <g id="Group_2954" data-name="Group 2954" transform="translate(2.103 1.317)">
                      <g id="Group_2953" data-name="Group 2953">
                        <g id="Group_2952" data-name="Group 2952">
                          <g id="Group_2951" data-name="Group 2951">
                            <g id="Group_2950" data-name="Group 2950">
                              <g id="Group_2949" data-name="Group 2949">
                                <g id="Group_2948" data-name="Group 2948">
                                  <g id="Group_2947" data-name="Group 2947">
                                    <g id="Group_2946" data-name="Group 2946">
                                      <g id="Group_2945" data-name="Group 2945">
                                        <path id="Path_8138" data-name="Path 8138" d="M966.561,155.536c.012-.021.093.017.236.016a.771.771,0,0,0,.528-.231,1.906,1.906,0,0,0,.083-1.923,2.548,2.548,0,0,0-.659-.91.889.889,0,0,0-.774-.294.392.392,0,0,0-.324.382c0,.137.061.206.042.222s-.117-.028-.161-.208a.491.491,0,0,1,.042-.325.581.581,0,0,1,.339-.281,1.082,1.082,0,0,1,1.018.285,2.613,2.613,0,0,1,.76,1.007,2,2,0,0,1-.218,2.205.825.825,0,0,1-.689.19C966.613,155.63,966.55,155.55,966.561,155.536Z" transform="translate(-965.52 -151.943)" fill="#eb996e"/>
                                      </g>
                                    </g>
                                  </g>
                                </g>
                              </g>
                            </g>
                          </g>
                        </g>
                      </g>
                    </g>
                  </g>
                </g>
              </g>
              <g id="Group_2962" data-name="Group 2962" transform="translate(0.488)">
                <g id="Group_2961" data-name="Group 2961">
                  <g id="Group_2960" data-name="Group 2960">
                    <g id="Group_2959" data-name="Group 2959">
                      <g id="Group_2958" data-name="Group 2958">
                        <path id="Path_8139" data-name="Path 8139" d="M926.155,128.454a2.323,2.323,0,0,0-1.413,1.929c.026.693.291,1.361.318,2.054a1.563,1.563,0,0,1-.971,1.654,1.36,1.36,0,0,1-1.276-.488,3.737,3.737,0,0,1-.651-1.268c-.693-1.962-1.223-3.986-2.081-5.882a10.621,10.621,0,0,0-3.861-4.787,5.809,5.809,0,0,0-5.926-.279c-1.178.715-1.983,1.92-3.118,2.7a5.4,5.4,0,0,1-4.682.673,2.246,2.246,0,0,0-.261-.056,1.192,1.192,0,0,1-1-1.041,1.161,1.161,0,0,1,.043-.5c1.3-3.452,5.345-6.265,8.946-7.064a12.9,12.9,0,0,1,10.608,2.26c2.878,2.306,4.561,6.677,5.324,10.089" transform="translate(-901.226 -115.796)" fill="#263238"/>
                      </g>
                    </g>
                  </g>
                </g>
              </g>
            </g>
          </g>
          <g id="Group_2965" data-name="Group 2965" transform="translate(12.959 24.698)">
            <path id="Path_8140" data-name="Path 8140" d="M936.18,179.747c-.012.062-.215.06-.516.109a2.637,2.637,0,0,0-1.072.446,3.186,3.186,0,0,0-.816.847c-.172.255-.254.439-.313.426s-.066-.23.058-.556a2.339,2.339,0,0,1,.839-1.047,2.1,2.1,0,0,1,1.288-.4C936,179.594,936.191,179.7,936.18,179.747Z" transform="translate(-933.426 -179.569)" fill="#263238"/>
          </g>
          <g id="Group_2966" data-name="Group 2966" transform="translate(15.006 16.314)">
            <path id="Path_8141" data-name="Path 8141" d="M940.125,157.92a1.454,1.454,0,0,1-1.413,1.29c-.013-.058.424-.167.812-.529S940.069,157.9,940.125,157.92Z" transform="translate(-938.712 -157.92)" fill="#eb996e"/>
          </g>
        </g>
        <g id="Group_2972" data-name="Group 2972" transform="translate(35.754 8.229)">
          <g id="Group_2969" data-name="Group 2969">
            <path id="Path_8142" data-name="Path 8142" d="M859.206,152.281l6.115-11.181,5.038-4.057,6.5.894s1.866,2.128,1.146,3.18-1.373,3.7-2.1,2.733a7.135,7.135,0,0,1-.883-3l-1.714-.092.015,3.025,3.454,1.051s3.414-2.841,3.76-2.218.044,1.775-1.911,3.429-4.321,4.207-4.321,4.207l-3.073.729-2.761,4.408Z" transform="translate(-845.164 -137.043)" fill="#ffbe9d"/>
            <g id="Group_2968" data-name="Group 2968" transform="translate(0 14.749)">
              <path id="Path_8143" data-name="Path 8143" d="M871.517,189.977l-32.088,9.754,7.513-21.422-10.195-3.185-11.584,23.794c-3.5,8.228-2.546,11.866.705,15.437h0c2.614,2.871,9.479,1.469,13.3.755l28.076-4.378Z" transform="translate(-822.947 -175.125)" fill="#0083ff"/>
              <path id="Path_8144" data-name="Path 8144" d="M871.517,189.977l-32.088,9.754,7.513-21.422-10.195-3.185-11.584,23.794c-3.5,8.228-2.546,11.866.705,15.437h0c2.614,2.871,9.479,1.469,13.3.755l27.977-4.362Z" transform="translate(-822.947 -175.125)" opacity="0.4"/>
            </g>
          </g>
          <g id="Group_2970" data-name="Group 2970" transform="translate(7.73 27.196)">
            <path id="Path_8145" data-name="Path 8145" d="M845.77,207.6a10.316,10.316,0,0,1-2.864-.309,10.352,10.352,0,0,1,2.864.309Z" transform="translate(-842.906 -207.266)" fill="#fafafa"/>
          </g>
          <g id="Group_2971" data-name="Group 2971" transform="translate(8.491 25.641)">
            <path id="Path_8146" data-name="Path 8146" d="M847.483,204.013a9.209,9.209,0,0,1-2.611-.751,9.21,9.21,0,0,1,2.611.751Z" transform="translate(-844.871 -203.249)" fill="#fafafa"/>
          </g>
        </g>
        <g id="Group_2988" data-name="Group 2988" transform="translate(40.622 4.737)">
          <path id="Path_8147" data-name="Path 8147" d="M932.373,215.433s12.946,20.873,12.857,23.989,5.985,9.9,8.664,12.584,18.162,15.5,24.057,15.5c0,0,7.6-10.949,7.064-17.38s-12.477-40.336-12.477-40.336-9.265-19.443-17.815-21.342c-2.168-.481-5.639-1.236-5.639-1.236a7.524,7.524,0,0,1-3.8,7.032,88.529,88.529,0,0,1-13.2,6.331Z" transform="translate(-894.685 -164.292)" fill="#0083ff"/>
          <path id="Path_8148" data-name="Path 8148" d="M888.254,181.57l-19.367,5.591L852,190.682l7.513-21.422-10.76-3.362L837.732,189.87c-3.5,8.228-2.546,11.866.705,15.437h0c2.614,2.871,9.479,1.469,13.3.755l32.974-3.081Z" transform="translate(-835.516 -151.232)" fill="#0083ff"/>
          <path id="Path_8149" data-name="Path 8149" d="M871.838,143.022l5.848-10.692,5.038-4.057,6.5.894s1.866,2.128,1.146,3.18-1.373,3.7-2.1,2.733a7.129,7.129,0,0,1-.883-3l-1.715-.092.016,3.025,3.454,1.051s3.414-2.841,3.76-2.218.044,1.775-1.911,3.428-4.322,4.207-4.322,4.207l-3.072.728L881.2,146.03Z" transform="translate(-857.771 -128.178)" fill="#ffbe9d"/>
          <g id="Group_2973" data-name="Group 2973" transform="translate(14.067)">
            <path id="Path_8150" data-name="Path 8150" d="M881.2,145.879a.3.3,0,0,1,.034-.067l.113-.193.453-.747,1.749-2.838.011-.017.02,0,3.069-.742-.032.019a58.361,58.361,0,0,1,4.72-4.585,7.053,7.053,0,0,0,1.224-1.421,2.494,2.494,0,0,0,.354-.877,1.193,1.193,0,0,0-.017-.462.867.867,0,0,0-.083-.207c-.017-.029-.069-.047-.145-.036a2.818,2.818,0,0,0-.9.4c-.294.178-.583.372-.87.576-.573.409-1.141.85-1.7,1.313l-.039.033-.049-.015-3.455-1.048-.069-.021v-.073c-.005-.957-.012-1.984-.017-3.025v-.106l.106.005,1.715.091.086,0,.009.088a8.039,8.039,0,0,0,.573,2.446,2.557,2.557,0,0,0,.247.438c.089.139.205.249.313.227a.63.63,0,0,0,.328-.276,3.478,3.478,0,0,0,.258-.429c.313-.6.553-1.242.877-1.845.042-.075.084-.15.129-.223a1.377,1.377,0,0,0,.122-.211c.016-.033.035-.065.05-.1l.024-.111a.723.723,0,0,0,.023-.227,2.371,2.371,0,0,0-.231-.918,7.119,7.119,0,0,0-1.048-1.612l.06.033-6.5-.9.069-.019-5.046,4.047.02-.023-4.3,7.791-1.187,2.127-.315.552c-.072.124-.114.185-.114.185s.029-.068.094-.2l.295-.563,1.15-2.147,4.24-7.824.007-.014.012-.01,5.03-4.067.031-.025.039.005,6.5.887.037.005.023.027a7.29,7.29,0,0,1,1.082,1.661,2.561,2.561,0,0,1,.25,1,.9.9,0,0,1-.027.269l-.031.134c-.018.043-.041.084-.061.125a1.712,1.712,0,0,1-.13.225c-.043.069-.084.141-.124.213-.314.586-.554,1.226-.875,1.843a3.668,3.668,0,0,1-.274.455.792.792,0,0,1-.46.356.416.416,0,0,1-.318-.093.9.9,0,0,1-.19-.217,2.756,2.756,0,0,1-.265-.47,8.2,8.2,0,0,1-.591-2.515l.095.093-1.715-.093.1-.1c.005,1.041.01,2.067.014,3.025l-.069-.094,3.453,1.054-.089.018c.568-.466,1.139-.906,1.718-1.317.29-.2.582-.4.883-.581a2.906,2.906,0,0,1,.977-.421.312.312,0,0,1,.311.117,1,1,0,0,1,.106.259,1.376,1.376,0,0,1,.019.534,2.672,2.672,0,0,1-.381.94,7.19,7.19,0,0,1-1.259,1.452,59.91,59.91,0,0,0-4.738,4.55l-.013.014-.019,0-3.075.715.031-.022-1.79,2.812-.474.733-.124.186A.335.335,0,0,1,881.2,145.879Z" transform="translate(-871.838 -128.027)" fill="#eb996e"/>
          </g>
          <g id="Group_2974" data-name="Group 2974" transform="translate(37.499 52.722)">
            <path id="Path_8151" data-name="Path 8151" d="M945.8,268.052a3.072,3.072,0,0,1-.467-.318c-.144-.109-.323-.24-.539-.379s-.452-.313-.732-.474a17.126,17.126,0,0,0-2.006-1.053,18.4,18.4,0,0,0-2.623-.9,21.576,21.576,0,0,0-5-.628c-.647-.005-1.171,0-1.533.015a3.092,3.092,0,0,1-.565,0,3.006,3.006,0,0,1,.56-.075c.362-.039.888-.066,1.538-.079a19.591,19.591,0,0,1,5.047.576,17.255,17.255,0,0,1,2.648.922,15.466,15.466,0,0,1,2.007,1.1c.278.17.512.351.721.5s.384.29.522.409A2.992,2.992,0,0,1,945.8,268.052Z" transform="translate(-932.341 -264.159)" fill="#263238"/>
          </g>
          <g id="Group_2975" data-name="Group 2975" transform="translate(33.777 31.346)">
            <path id="Path_8152" data-name="Path 8152" d="M937.8,208.967a3.6,3.6,0,0,1-.581.213l-1.6.509c-1.358.421-3.237.99-5.316,1.606s-3.966,1.163-5.335,1.55l-1.625.448a3.673,3.673,0,0,1-.605.138,3.611,3.611,0,0,1,.579-.212l1.6-.509c1.357-.421,3.238-.99,5.32-1.606s3.968-1.164,5.337-1.55l1.624-.448A3.663,3.663,0,0,1,937.8,208.967Z" transform="translate(-922.73 -208.965)" fill="#263238"/>
          </g>
          <g id="Group_2976" data-name="Group 2976" transform="translate(52.897 77.404)">
            <path id="Path_8153" data-name="Path 8153" d="M998.577,337.42a1.83,1.83,0,0,1-.209.235c-.073.073-.156.171-.268.272l-.4.339a7.948,7.948,0,0,1-2.984,1.426,10.819,10.819,0,0,1-4.9.029,16.211,16.211,0,0,1-5.465-2.5,47.923,47.923,0,0,1-4.693-3.767c-1.385-1.222-2.642-2.307-3.754-3.149a24.843,24.843,0,0,0-2.743-1.831c-.34-.19-.606-.335-.789-.428a1.805,1.805,0,0,1-.273-.155,1.836,1.836,0,0,1,.291.119c.19.081.462.215.81.4a22.211,22.211,0,0,1,2.791,1.786c1.127.831,2.4,1.91,3.791,3.124a49.916,49.916,0,0,0,4.684,3.74,16.256,16.256,0,0,0,5.392,2.486,10.837,10.837,0,0,0,4.827.014,8.155,8.155,0,0,0,2.97-1.35l.4-.321c.115-.1.2-.188.279-.256A1.823,1.823,0,0,1,998.577,337.42Z" transform="translate(-972.101 -327.89)" fill="#263238"/>
          </g>
          <g id="Group_2977" data-name="Group 2977" transform="translate(63.518 60.911)">
            <path id="Path_8154" data-name="Path 8154" d="M1008.041,289.333a1.405,1.405,0,0,1-.384.035,7.426,7.426,0,0,1-1.05-.041,9.9,9.9,0,0,1-1.536-.278,10.4,10.4,0,0,1-3.444-1.629,9.915,9.915,0,0,1-1.189-1.011,7.408,7.408,0,0,1-.7-.786,1.4,1.4,0,0,1-.217-.319c.029-.023.369.406,1.012,1a11.459,11.459,0,0,0,1.2.962,11.232,11.232,0,0,0,3.385,1.6,11.534,11.534,0,0,0,1.5.316C1007.493,289.306,1008.04,289.3,1008.041,289.333Z" transform="translate(-999.523 -285.305)" fill="#263238"/>
          </g>
          <g id="Group_2978" data-name="Group 2978" transform="translate(57.267 79.773)" opacity="0.2">
            <path id="Path_8155" data-name="Path 8155" d="M983.385,334.3a5.409,5.409,0,0,1,4.84.775,36.368,36.368,0,0,1,3.868,3.311,7.583,7.583,0,0,0,4.524,2.125c2.456.076,4.659-1.757,7.116-1.725.916.012,2,.5,2.052,1.413a2.077,2.077,0,0,1-1.148,1.656c-2.666,1.76-4.453,2.937-10.281.7A48.555,48.555,0,0,1,983.385,334.3Z" transform="translate(-983.385 -334.008)"/>
          </g>
          <g id="Group_2979" data-name="Group 2979" transform="translate(38.726 52.771)">
            <path id="Path_8156" data-name="Path 8156" d="M947.652,286.6c-.049.026-2.807-4.948-6.159-11.108s-6.031-11.179-5.982-11.206,2.806,4.946,6.159,11.109S947.7,286.573,947.652,286.6Z" transform="translate(-935.51 -264.286)" fill="#263238"/>
          </g>
          <g id="Group_2980" data-name="Group 2980" transform="translate(28.472 37.168)">
            <path id="Path_8157" data-name="Path 8157" d="M912.842,239.987a4.038,4.038,0,0,1-.272-.59c-.165-.384-.385-.947-.642-1.649a50.935,50.935,0,0,1-2.7-11.34c-.087-.742-.143-1.344-.169-1.761a.325.325,0,1,1,.078-.008c.05.414.127,1.013.232,1.75.208,1.476.553,3.507,1.078,5.72s1.133,4.18,1.612,5.592c.239.706.439,1.275.581,1.668A3.956,3.956,0,0,1,912.842,239.987Z" transform="translate(-909.033 -223.998)" fill="#fafafa"/>
          </g>
          <g id="Group_2981" data-name="Group 2981" transform="translate(31.069 36.435)">
            <path id="Path_8158" data-name="Path 8158" d="M919.206,238.8a4.245,4.245,0,0,1-.262-.621c-.158-.4-.369-.994-.612-1.73a53.562,53.562,0,0,1-2.452-11.838c-.068-.772-.11-1.4-.125-1.831a.337.337,0,1,1,.078-.005c.039.431.1,1.053.189,1.821.172,1.536.47,3.652.947,5.963s1.047,4.369,1.5,5.847c.226.739.415,1.336.55,1.747A4.354,4.354,0,0,1,919.206,238.8Z" transform="translate(-915.739 -222.104)" fill="#fafafa"/>
          </g>
          <g id="Group_2982" data-name="Group 2982" transform="translate(44.56 61.336)">
            <path id="Path_8159" data-name="Path 8159" d="M969.587,286.4a.735.735,0,0,1-.186.06l-.541.135c-.471.115-1.157.261-2.008.424a62.436,62.436,0,0,1-13.481,1.055c-.866-.028-1.567-.066-2.05-.106l-.556-.049a.1.1,0,1,1,0-.04l.557.011c.484.016,1.184.032,2.049.042,1.729.022,4.12-.016,6.751-.22s5-.542,6.7-.832c.853-.144,1.542-.269,2.017-.36l.549-.1A.7.7,0,0,1,969.587,286.4Z" transform="translate(-950.573 -286.401)" fill="#fafafa"/>
          </g>
          <g id="Group_2983" data-name="Group 2983" transform="translate(65.326 54.838)">
            <path id="Path_8160" data-name="Path 8160" d="M1018.792,269.624a3.956,3.956,0,0,1-.5.406c-.328.253-.815.6-1.428,1.015a42.35,42.35,0,0,1-10.365,5.07c-.7.229-1.278.4-1.679.5a3.94,3.94,0,0,1-.627.145,3.929,3.929,0,0,1,.6-.22c.393-.126.959-.317,1.655-.564a49.616,49.616,0,0,0,10.333-5.053c.622-.4,1.12-.728,1.461-.96A3.877,3.877,0,0,1,1018.792,269.624Z" transform="translate(-1004.194 -269.623)" fill="#fafafa"/>
          </g>
          <g id="Group_2984" data-name="Group 2984" transform="translate(43.294 51.42)">
            <path id="Path_8161" data-name="Path 8161" d="M983.609,260.8a.361.361,0,0,1-.075.065l-.233.174-.908.653-.659.468c-.245.166-.519.333-.809.519-.586.365-1.237.807-2,1.219l-1.189.67c-.414.23-.863.438-1.318.671-.905.477-1.912.9-2.964,1.366A49.92,49.92,0,0,1,959,270.258c-1.146.091-2.234.2-3.257.207-.511.011-1,.041-1.478.036l-1.364-.025c-.869,0-1.653-.078-2.342-.12-.344-.026-.665-.043-.959-.072l-.8-.1-1.109-.143L947.4,270a.05.05,0,1,1,0-.021l.29.022,1.112.106.8.081c.294.024.614.035.958.055.688.032,1.469.1,2.337.09l1.36.012c.473,0,.964-.032,1.474-.047,1.019-.017,2.1-.129,3.244-.224a51.191,51.191,0,0,0,14.4-3.64c1.049-.458,2.056-.875,2.96-1.344.455-.229.9-.433,1.319-.659l1.191-.656c.768-.4,1.423-.835,2.013-1.19.293-.182.569-.344.817-.5l.668-.453.928-.622.244-.158A.379.379,0,0,1,983.609,260.8Z" transform="translate(-947.304 -260.798)" fill="#fafafa"/>
          </g>
          <g id="Group_2985" data-name="Group 2985" transform="translate(9.62 22.637)">
            <path id="Path_8162" data-name="Path 8162" d="M871.935,189.842c-.016.053-2.62-.656-5.817-1.584s-5.777-1.724-5.761-1.778,2.62.655,5.817,1.584S871.95,189.789,871.935,189.842Z" transform="translate(-860.357 -186.478)" fill="#fafafa"/>
          </g>
          <g id="Group_2986" data-name="Group 2986" transform="translate(8.93 24.029)">
            <path id="Path_8163" data-name="Path 8163" d="M870.332,193.5c-.016.053-2.66-.67-5.906-1.617s-5.866-1.757-5.851-1.811,2.66.67,5.907,1.617S870.348,193.447,870.332,193.5Z" transform="translate(-858.575 -190.071)" fill="#fafafa"/>
          </g>
          <g id="Group_2987" data-name="Group 2987" transform="translate(38.778 52.877)" opacity="0.3">
            <path id="Path_8164" data-name="Path 8164" d="M950.953,274.746a10.41,10.41,0,0,0-5.449-8.183,17.8,17.8,0,0,0-9.859-1.964l8.732,15.094a11.269,11.269,0,0,0,3-.171,4.574,4.574,0,0,0,2.794-1.632A4.884,4.884,0,0,0,950.953,274.746Z" transform="translate(-935.644 -264.559)"/>
          </g>
        </g>
      </g>
      <g id="Group_3177" data-name="Group 3177" transform="translate(125.326 57.98)">
        <g id="Group_3173" data-name="Group 3173">
          <g id="Group_3167" data-name="Group 3167">
            <g id="Group_2995" data-name="Group 2995" transform="translate(6.662)">
              <g id="Group_2994" data-name="Group 2994">
                <g id="Group_2993" data-name="Group 2993">
                  <g id="Group_2992" data-name="Group 2992">
                    <g id="Group_2991" data-name="Group 2991">
                      <g id="Group_2990" data-name="Group 2990">
                        <path id="Path_8165" data-name="Path 8165" d="M1080.642,224.067a1.519,1.519,0,0,1,.1-.23l.309-.66a16.541,16.541,0,0,0,.909-2.639,23.3,23.3,0,0,0-.078-10.193,54.748,54.748,0,0,0-1.891-6.846c-.8-2.43-1.729-5.008-2.489-7.795a30.153,30.153,0,0,1-1.229-8.963,35.07,35.07,0,0,1,2.086-9.484,46.109,46.109,0,0,0,2.414-9.34,14.235,14.235,0,0,0-1.713-8.626c-1.366-2.517-3.085-4.67-4.371-6.9a23.959,23.959,0,0,1-2.627-6.633,24.7,24.7,0,0,1-.167-10.276,19.137,19.137,0,0,1,1.073-3.629,1.438,1.438,0,0,1-.064.241l-.217.7a26.574,26.574,0,0,0-.667,2.716,25.024,25.024,0,0,0,.267,10.2,23.915,23.915,0,0,0,2.636,6.549c1.284,2.2,3.01,4.347,4.4,6.894a14.526,14.526,0,0,1,1.766,8.8,46.075,46.075,0,0,1-2.422,9.41,34.973,34.973,0,0,0-2.077,9.4,30.017,30.017,0,0,0,1.2,8.872c.747,2.773,1.665,5.352,2.456,7.789a54.1,54.1,0,0,1,1.86,6.887,23.033,23.033,0,0,1-.026,10.269,15.213,15.213,0,0,1-.972,2.636l-.339.647A1.3,1.3,0,0,1,1080.642,224.067Z" transform="translate(-1071.433 -131.852)" fill="#263238"/>
                      </g>
                    </g>
                  </g>
                </g>
              </g>
            </g>
            <g id="Group_3007" data-name="Group 3007" transform="translate(10.938 9.403)">
              <g id="Group_3000" data-name="Group 3000">
                <g id="Group_2999" data-name="Group 2999">
                  <g id="Group_2998" data-name="Group 2998">
                    <g id="Group_2997" data-name="Group 2997">
                      <g id="Group_2996" data-name="Group 2996">
                        <path id="Path_8166" data-name="Path 8166" d="M1083.2,169.466s-2.612-8.353,2.073-13.243a.29.29,0,0,1,.5.143C1086.018,157.745,1086.331,161.947,1083.2,169.466Z" transform="translate(-1082.472 -156.131)" fill="#0083ff"/>
                      </g>
                    </g>
                  </g>
                </g>
              </g>
              <g id="Group_3006" data-name="Group 3006" transform="translate(0.632 2.875)">
                <g id="Group_3005" data-name="Group 3005">
                  <g id="Group_3004" data-name="Group 3004">
                    <g id="Group_3003" data-name="Group 3003">
                      <g id="Group_3002" data-name="Group 3002">
                        <g id="Group_3001" data-name="Group 3001">
                          <path id="Path_8167" data-name="Path 8167" d="M1085.762,163.554a7.716,7.716,0,0,1-.176,1.541c-.172,1.062-.373,2.307-.6,3.684s-.416,2.623-.585,3.684a8.444,8.444,0,0,1-.276,1.524,6.478,6.478,0,0,1,.047-1.553c.086-.954.255-2.267.491-3.709s.487-2.738.691-3.674A6.956,6.956,0,0,1,1085.762,163.554Z" transform="translate(-1084.103 -163.554)" fill="#263238"/>
                        </g>
                      </g>
                    </g>
                  </g>
                </g>
              </g>
            </g>
            <g id="Group_3019" data-name="Group 3019" transform="translate(14.681 31.686)">
              <g id="Group_3012" data-name="Group 3012" transform="translate(0.051)">
                <g id="Group_3011" data-name="Group 3011">
                  <g id="Group_3010" data-name="Group 3010">
                    <g id="Group_3009" data-name="Group 3009">
                      <g id="Group_3008" data-name="Group 3008">
                        <path id="Path_8168" data-name="Path 8168" d="M1092.269,224.42s1.6-8.6,8.026-10.736a.29.29,0,0,1,.372.359C1100.243,215.379,1098.554,219.239,1092.269,224.42Z" transform="translate(-1092.269 -213.668)" fill="#0083ff"/>
                      </g>
                    </g>
                  </g>
                </g>
              </g>
              <g id="Group_3018" data-name="Group 3018" transform="translate(0 2.236)">
                <g id="Group_3017" data-name="Group 3017">
                  <g id="Group_3016" data-name="Group 3016">
                    <g id="Group_3015" data-name="Group 3015">
                      <g id="Group_3014" data-name="Group 3014">
                        <g id="Group_3013" data-name="Group 3013">
                          <path id="Path_8169" data-name="Path 8169" d="M1098.463,219.444a7.628,7.628,0,0,1-.876,1.28l-2.25,2.977-2.24,2.983a8.356,8.356,0,0,1-.957,1.218,6.456,6.456,0,0,1,.768-1.35c.522-.8,1.285-1.885,2.169-3.048s1.711-2.193,2.329-2.924A7,7,0,0,1,1098.463,219.444Z" transform="translate(-1092.137 -219.443)" fill="#263238"/>
                        </g>
                      </g>
                    </g>
                  </g>
                </g>
              </g>
            </g>
            <g id="Group_3031" data-name="Group 3031" transform="translate(12.925 51.365)">
              <g id="Group_3024" data-name="Group 3024" transform="translate(0.004)">
                <g id="Group_3023" data-name="Group 3023">
                  <g id="Group_3022" data-name="Group 3022">
                    <g id="Group_3021" data-name="Group 3021">
                      <g id="Group_3020" data-name="Group 3020">
                        <path id="Path_8170" data-name="Path 8170" d="M1087.679,277.139s-.971-8.7,4.562-12.6a.29.29,0,0,1,.461.236C1092.684,266.172,1092.189,270.356,1087.679,277.139Z" transform="translate(-1087.614 -264.479)" fill="#0083ff"/>
                      </g>
                    </g>
                  </g>
                </g>
              </g>
              <g id="Group_3030" data-name="Group 3030" transform="translate(0 2.69)">
                <g id="Group_3029" data-name="Group 3029">
                  <g id="Group_3028" data-name="Group 3028">
                    <g id="Group_3027" data-name="Group 3027">
                      <g id="Group_3026" data-name="Group 3026">
                        <g id="Group_3025" data-name="Group 3025">
                          <path id="Path_8171" data-name="Path 8171" d="M1091.2,271.424a7.623,7.623,0,0,1-.467,1.479l-1.288,3.5-1.277,3.5a8.387,8.387,0,0,1-.562,1.444,6.464,6.464,0,0,1,.342-1.515c.267-.92.682-2.177,1.19-3.547s1-2.6,1.38-3.474A6.97,6.97,0,0,1,1091.2,271.424Z" transform="translate(-1087.603 -271.424)" fill="#263238"/>
                        </g>
                      </g>
                    </g>
                  </g>
                </g>
              </g>
            </g>
            <g id="Group_3043" data-name="Group 3043" transform="translate(17.77 73.255)">
              <g id="Group_3036" data-name="Group 3036" transform="translate(0.044)">
                <g id="Group_3035" data-name="Group 3035">
                  <g id="Group_3034" data-name="Group 3034">
                    <g id="Group_3033" data-name="Group 3033">
                      <g id="Group_3032" data-name="Group 3032">
                        <path id="Path_8172" data-name="Path 8172" d="M1100.25,333.483s-.658-8.727,5.011-12.433a.29.29,0,0,1,.451.252C1105.644,322.7,1105,326.866,1100.25,333.483Z" transform="translate(-1100.227 -321.001)" fill="#0083ff"/>
                      </g>
                    </g>
                  </g>
                </g>
              </g>
              <g id="Group_3042" data-name="Group 3042" transform="translate(0 2.645)">
                <g id="Group_3041" data-name="Group 3041">
                  <g id="Group_3040" data-name="Group 3040">
                    <g id="Group_3039" data-name="Group 3039">
                      <g id="Group_3038" data-name="Group 3038">
                        <g id="Group_3037" data-name="Group 3037">
                          <path id="Path_8173" data-name="Path 8173" d="M1104.067,327.831a7.653,7.653,0,0,1-.519,1.461l-1.412,3.455-1.4,3.457a8.42,8.42,0,0,1-.614,1.423,6.45,6.45,0,0,1,.4-1.5c.3-.91.76-2.151,1.316-3.5s1.093-2.558,1.5-3.423A6.978,6.978,0,0,1,1104.067,327.831Z" transform="translate(-1100.113 -327.831)" fill="#263238"/>
                        </g>
                      </g>
                    </g>
                  </g>
                </g>
              </g>
            </g>
            <g id="Group_3055" data-name="Group 3055" transform="translate(0 4.275)">
              <g id="Group_3048" data-name="Group 3048">
                <g id="Group_3047" data-name="Group 3047">
                  <g id="Group_3046" data-name="Group 3046">
                    <g id="Group_3045" data-name="Group 3045">
                      <g id="Group_3044" data-name="Group 3044">
                        <path id="Path_8174" data-name="Path 8174" d="M1062.14,154.015s-7.758-4.051-7.91-10.823a.289.289,0,0,1,.452-.25C1055.835,143.739,1059.03,146.486,1062.14,154.015Z" transform="translate(-1054.23 -142.891)" fill="#0083ff"/>
                      </g>
                    </g>
                  </g>
                </g>
              </g>
              <g id="Group_3054" data-name="Group 3054" transform="translate(1.608 2.627)">
                <g id="Group_3053" data-name="Group 3053">
                  <g id="Group_3052" data-name="Group 3052">
                    <g id="Group_3051" data-name="Group 3051">
                      <g id="Group_3050" data-name="Group 3050">
                        <g id="Group_3049" data-name="Group 3049">
                          <path id="Path_8175" data-name="Path 8175" d="M1058.385,149.673a7.715,7.715,0,0,1,.966,1.213l2.187,3.024,2.195,3.016a8.355,8.355,0,0,1,.883,1.273,6.5,6.5,0,0,1-1.066-1.13c-.614-.735-1.425-1.782-2.278-2.968s-1.594-2.279-2.112-3.084A6.948,6.948,0,0,1,1058.385,149.673Z" transform="translate(-1058.382 -149.673)" fill="#263238"/>
                        </g>
                      </g>
                    </g>
                  </g>
                </g>
              </g>
            </g>
            <g id="Group_3067" data-name="Group 3067" transform="translate(7.687 22.696)">
              <g id="Group_3060" data-name="Group 3060">
                <g id="Group_3059" data-name="Group 3059">
                  <g id="Group_3058" data-name="Group 3058">
                    <g id="Group_3057" data-name="Group 3057">
                      <g id="Group_3056" data-name="Group 3056">
                        <path id="Path_8176" data-name="Path 8176" d="M1082.63,201.1s-7.989-3.573-8.552-10.322a.29.29,0,0,1,.436-.277C1075.714,191.223,1079.07,193.77,1082.63,201.1Z" transform="translate(-1074.077 -190.455)" fill="#0083ff"/>
                      </g>
                    </g>
                  </g>
                </g>
              </g>
              <g id="Group_3066" data-name="Group 3066" transform="translate(1.747 2.542)">
                <g id="Group_3065" data-name="Group 3065">
                  <g id="Group_3064" data-name="Group 3064">
                    <g id="Group_3063" data-name="Group 3063">
                      <g id="Group_3062" data-name="Group 3062">
                        <g id="Group_3061" data-name="Group 3061">
                          <path id="Path_8177" data-name="Path 8177" d="M1078.592,197.019a7.713,7.713,0,0,1,1.038,1.152l2.367,2.886,2.374,2.878a8.366,8.366,0,0,1,.959,1.216,6.451,6.451,0,0,1-1.132-1.063c-.658-.7-1.531-1.692-2.454-2.824s-1.73-2.178-2.3-2.95A6.96,6.96,0,0,1,1078.592,197.019Z" transform="translate(-1078.589 -197.018)" fill="#263238"/>
                        </g>
                      </g>
                    </g>
                  </g>
                </g>
              </g>
            </g>
            <g id="Group_3079" data-name="Group 3079" transform="translate(8.044 40.079)">
              <g id="Group_3072" data-name="Group 3072">
                <g id="Group_3071" data-name="Group 3071">
                  <g id="Group_3070" data-name="Group 3070">
                    <g id="Group_3069" data-name="Group 3069">
                      <g id="Group_3068" data-name="Group 3068">
                        <path id="Path_8178" data-name="Path 8178" d="M1078.6,248.606s-5.485-6.819-2.913-13.084a.29.29,0,0,1,.515-.048C1076.938,236.665,1078.765,240.462,1078.6,248.606Z" transform="translate(-1074.999 -235.338)" fill="#0083ff"/>
                      </g>
                    </g>
                  </g>
                </g>
              </g>
              <g id="Group_3078" data-name="Group 3078" transform="translate(1.217 2.96)">
                <g id="Group_3077" data-name="Group 3077">
                  <g id="Group_3076" data-name="Group 3076">
                    <g id="Group_3075" data-name="Group 3075">
                      <g id="Group_3074" data-name="Group 3074">
                        <g id="Group_3073" data-name="Group 3073">
                          <path id="Path_8179" data-name="Path 8179" d="M1078.156,242.981a7.626,7.626,0,0,1,.4,1.5c.228,1.051.5,2.284.792,3.647l.8,3.642a8.408,8.408,0,0,1,.3,1.52,6.489,6.489,0,0,1-.524-1.462c-.268-.92-.592-2.2-.9-3.632s-.548-2.727-.7-3.672A6.98,6.98,0,0,1,1078.156,242.981Z" transform="translate(-1078.142 -242.981)" fill="#263238"/>
                        </g>
                      </g>
                    </g>
                  </g>
                </g>
              </g>
            </g>
            <g id="Group_3091" data-name="Group 3091" transform="translate(8.698 66.114)">
              <g id="Group_3084" data-name="Group 3084">
                <g id="Group_3083" data-name="Group 3083">
                  <g id="Group_3082" data-name="Group 3082">
                    <g id="Group_3081" data-name="Group 3081">
                      <g id="Group_3080" data-name="Group 3080">
                        <path id="Path_8180" data-name="Path 8180" d="M1085.067,313.343s-7.928-3.706-8.377-10.464a.29.29,0,0,1,.441-.27C1078.318,303.354,1081.63,305.958,1085.067,313.343Z" transform="translate(-1076.689 -302.564)" fill="#0083ff"/>
                      </g>
                    </g>
                  </g>
                </g>
              </g>
              <g id="Group_3090" data-name="Group 3090" transform="translate(1.709 2.566)">
                <g id="Group_3089" data-name="Group 3089">
                  <g id="Group_3088" data-name="Group 3088">
                    <g id="Group_3087" data-name="Group 3087">
                      <g id="Group_3086" data-name="Group 3086">
                        <g id="Group_3085" data-name="Group 3085">
                          <path id="Path_8181" data-name="Path 8181" d="M1081.105,309.191a7.7,7.7,0,0,1,1.019,1.169l2.318,2.925,2.325,2.917a8.4,8.4,0,0,1,.939,1.233,6.46,6.46,0,0,1-1.115-1.082c-.646-.708-1.5-1.718-2.406-2.865s-1.693-2.207-2.245-2.989A6.951,6.951,0,0,1,1081.105,309.191Z" transform="translate(-1081.103 -309.19)" fill="#263238"/>
                        </g>
                      </g>
                    </g>
                  </g>
                </g>
              </g>
            </g>
            <g id="Group_3166" data-name="Group 3166" transform="translate(15.136 40.494)">
              <g id="Group_3097" data-name="Group 3097" transform="translate(2.594 1.99)">
                <g id="Group_3096" data-name="Group 3096">
                  <g id="Group_3095" data-name="Group 3095">
                    <g id="Group_3094" data-name="Group 3094">
                      <g id="Group_3093" data-name="Group 3093">
                        <g id="Group_3092" data-name="Group 3092">
                          <path id="Path_8182" data-name="Path 8182" d="M1115.146,241.551a.666.666,0,0,1,.01.192c0,.153-.009.337-.014.56-.024.526-.055,1.236-.094,2.122l-.415,7.578v.007l0,.011a29.407,29.407,0,0,1-4.345,10.085c-1.589,2.51-3.255,4.793-4.691,6.915a48.946,48.946,0,0,0-3.517,5.815,24.585,24.585,0,0,0-1.646,4.267c-.14.523-.244.93-.3,1.21a.219.219,0,1,1-.065-.013c.039-.284.124-.7.245-1.229a22.537,22.537,0,0,1,1.561-4.336,46.382,46.382,0,0,1,3.475-5.882c1.427-2.138,3.084-4.424,4.665-6.921a29.82,29.82,0,0,0,4.347-9.964l0,.018c.219-3.108.4-5.707.532-7.571l.171-2.117c.022-.222.041-.405.056-.557A.647.647,0,0,1,1115.146,241.551Z" transform="translate(-1100.008 -241.551)" fill="#263238"/>
                        </g>
                      </g>
                    </g>
                  </g>
                </g>
              </g>
              <g id="Group_3114" data-name="Group 3114" transform="translate(11.254 8.405)">
                <g id="Group_3102" data-name="Group 3102">
                  <g id="Group_3101" data-name="Group 3101">
                    <g id="Group_3100" data-name="Group 3100">
                      <g id="Group_3099" data-name="Group 3099">
                        <g id="Group_3098" data-name="Group 3098">
                          <path id="Path_8183" data-name="Path 8183" d="M1124.127,271.6s3.357-8.081-.866-13.376a.289.289,0,0,0-.507.1C1122.379,259.676,1121.688,263.832,1124.127,271.6Z" transform="translate(-1122.369 -258.115)" fill="#005bb1"/>
                        </g>
                      </g>
                    </g>
                  </g>
                </g>
                <g id="Group_3108" data-name="Group 3108" transform="translate(1.122 2.93)">
                  <g id="Group_3107" data-name="Group 3107">
                    <g id="Group_3106" data-name="Group 3106">
                      <g id="Group_3105" data-name="Group 3105">
                        <g id="Group_3104" data-name="Group 3104">
                          <g id="Group_3103" data-name="Group 3103">
                            <path id="Path_8184" data-name="Path 8184" d="M1125.291,265.68a6.979,6.979,0,0,1,.266,1.529c.119.95.252,2.265.356,3.721s.154,2.78.154,3.738a6.454,6.454,0,0,1-.094,1.55,8.414,8.414,0,0,1-.137-1.543c-.072-1.072-.156-2.331-.249-3.722s-.185-2.65-.26-3.723A7.711,7.711,0,0,1,1125.291,265.68Z" transform="translate(-1125.267 -265.68)" fill="#263238"/>
                          </g>
                        </g>
                      </g>
                    </g>
                  </g>
                </g>
              </g>
              <g id="Group_3131" data-name="Group 3131" transform="translate(0 28.013)">
                <g id="Group_3119" data-name="Group 3119">
                  <g id="Group_3118" data-name="Group 3118">
                    <g id="Group_3117" data-name="Group 3117">
                      <g id="Group_3116" data-name="Group 3116">
                        <g id="Group_3115" data-name="Group 3115">
                          <path id="Path_8186" data-name="Path 8186" d="M1095.923,322.1s2.691-8.327-1.948-13.262a.289.289,0,0,0-.5.139C1093.214,310.354,1092.862,314.552,1095.923,322.1Z" transform="translate(-1093.311 -308.744)" fill="#0083ff"/>
                        </g>
                      </g>
                    </g>
                  </g>
                </g>
                <g id="Group_3125" data-name="Group 3125" transform="translate(1.133 2.882)">
                  <g id="Group_3124" data-name="Group 3124">
                    <g id="Group_3123" data-name="Group 3123">
                      <g id="Group_3122" data-name="Group 3122">
                        <g id="Group_3121" data-name="Group 3121">
                          <g id="Group_3120" data-name="Group 3120">
                            <path id="Path_8187" data-name="Path 8187" d="M1096.25,316.185a6.963,6.963,0,0,1,.389,1.5c.2.937.434,2.237.657,3.68s.379,2.758.456,3.713a6.456,6.456,0,0,1,.032,1.553,8.422,8.422,0,0,1-.262-1.527c-.158-1.063-.344-2.311-.549-3.689s-.4-2.627-.561-3.69A7.665,7.665,0,0,1,1096.25,316.185Z" transform="translate(-1096.236 -316.185)" fill="#263238"/>
                          </g>
                        </g>
                      </g>
                    </g>
                  </g>
                </g>
                <g id="Group_3130" data-name="Group 3130" opacity="0.3">
                  <g id="Group_3129" data-name="Group 3129">
                    <g id="Group_3128" data-name="Group 3128">
                      <g id="Group_3127" data-name="Group 3127">
                        <g id="Group_3126" data-name="Group 3126">
                          <path id="Path_8188" data-name="Path 8188" d="M1095.923,322.1s2.691-8.327-1.948-13.262a.289.289,0,0,0-.5.139C1093.214,310.354,1092.862,314.552,1095.923,322.1Z" transform="translate(-1093.311 -308.744)"/>
                        </g>
                      </g>
                    </g>
                  </g>
                </g>
              </g>
              <g id="Group_3148" data-name="Group 3148" transform="translate(17.288)">
                <g id="Group_3136" data-name="Group 3136">
                  <g id="Group_3135" data-name="Group 3135">
                    <g id="Group_3134" data-name="Group 3134">
                      <g id="Group_3133" data-name="Group 3133">
                        <g id="Group_3132" data-name="Group 3132">
                          <path id="Path_8189" data-name="Path 8189" d="M1137.949,248.428s7.169-5.019,6.446-11.753a.29.29,0,0,0-.481-.19C1142.874,237.425,1140.06,240.561,1137.949,248.428Z" transform="translate(-1137.949 -236.412)" fill="#005bb1"/>
                        </g>
                      </g>
                    </g>
                  </g>
                </g>
                <g id="Group_3147" data-name="Group 3147" transform="translate(0.066 2.778)">
                  <g id="Group_3146" data-name="Group 3146">
                    <g id="Group_3145" data-name="Group 3145">
                      <g id="Group_3144" data-name="Group 3144">
                        <g id="Group_3143" data-name="Group 3143">
                          <g id="Group_3142" data-name="Group 3142">
                            <path id="Path_8191" data-name="Path 8191" d="M1143.2,243.585a6.988,6.988,0,0,1-.6,1.433c-.409.865-1,2.046-1.7,3.331s-1.361,2.428-1.876,3.237a6.471,6.471,0,0,1-.911,1.258,8.437,8.437,0,0,1,.712-1.376l1.787-3.274,1.778-3.281A7.684,7.684,0,0,1,1143.2,243.585Z" transform="translate(-1138.121 -243.585)" fill="#263238"/>
                          </g>
                        </g>
                      </g>
                    </g>
                  </g>
                </g>
              </g>
              <g id="Group_3165" data-name="Group 3165" transform="translate(5.503 25.008)">
                <g id="Group_3153" data-name="Group 3153">
                  <g id="Group_3152" data-name="Group 3152">
                    <g id="Group_3151" data-name="Group 3151">
                      <g id="Group_3150" data-name="Group 3150">
                        <g id="Group_3149" data-name="Group 3149">
                          <path id="Path_8192" data-name="Path 8192" d="M1107.52,309.089s8.647-1.348,10.964-7.713a.29.29,0,0,0-.348-.382C1116.787,301.38,1112.88,302.956,1107.52,309.089Z" transform="translate(-1107.52 -300.983)" fill="#0083ff"/>
                        </g>
                      </g>
                    </g>
                  </g>
                </g>
                <g id="Group_3158" data-name="Group 3158" opacity="0.3">
                  <g id="Group_3157" data-name="Group 3157">
                    <g id="Group_3156" data-name="Group 3156">
                      <g id="Group_3155" data-name="Group 3155">
                        <g id="Group_3154" data-name="Group 3154">
                          <path id="Path_8193" data-name="Path 8193" d="M1107.52,309.089s8.647-1.348,10.964-7.713a.29.29,0,0,0-.348-.382C1116.787,301.38,1112.88,302.956,1107.52,309.089Z" transform="translate(-1107.52 -300.983)"/>
                        </g>
                      </g>
                    </g>
                  </g>
                </g>
                <g id="Group_3164" data-name="Group 3164" transform="translate(0.053 2.077)">
                  <g id="Group_3163" data-name="Group 3163">
                    <g id="Group_3162" data-name="Group 3162">
                      <g id="Group_3161" data-name="Group 3161">
                        <g id="Group_3160" data-name="Group 3160">
                          <g id="Group_3159" data-name="Group 3159">
                            <path id="Path_8194" data-name="Path 8194" d="M1116.3,306.349a6.962,6.962,0,0,1-1.166,1.024c-.749.6-1.8,1.4-2.99,2.244s-2.292,1.581-3.11,2.08a6.458,6.458,0,0,1-1.372.728,8.378,8.378,0,0,1,1.246-.922l3.046-2.152,3.041-2.163A7.707,7.707,0,0,1,1116.3,306.349Z" transform="translate(-1107.657 -306.346)" fill="#263238"/>
                          </g>
                        </g>
                      </g>
                    </g>
                  </g>
                </g>
              </g>
            </g>
          </g>
          <g id="Group_3172" data-name="Group 3172" transform="translate(10.407 89.522)">
            <g id="Group_3171" data-name="Group 3171">
              <g id="Group_3170" data-name="Group 3170">
                <g id="Group_3169" data-name="Group 3169">
                  <g id="Group_3168" data-name="Group 3168">
                    <path id="Path_8195" data-name="Path 8195" d="M1081.1,363l2.48,16.269,9.906-.017L1096.825,363Z" transform="translate(-1081.103 -363.004)" fill="#455a64"/>
                  </g>
                </g>
              </g>
            </g>
          </g>
        </g>
        <g id="Group_3176" data-name="Group 3176" transform="translate(11.588 91.812)">
          <g id="Group_3175" data-name="Group 3175">
            <g id="Group_3174" data-name="Group 3174">
              <path id="Path_8196" data-name="Path 8196" d="M1097.241,372.9s-.026.024-.083.06-.142.092-.261.149a3.64,3.64,0,0,1-1.107.33,4.074,4.074,0,0,1-1.822-.171,3.815,3.815,0,0,1-1.958-1.422,2.761,2.761,0,0,1-.459-1.361,1.484,1.484,0,0,1,.672-1.4,1.6,1.6,0,0,1,1.66.137,2.419,2.419,0,0,1,.949,1.494,6.351,6.351,0,0,1,.124,1.837,6.07,6.07,0,0,1-.4,1.879,4.148,4.148,0,0,1-1.149,1.638,3.2,3.2,0,0,1-1.906.8,3.493,3.493,0,0,1-1.982-.576,5.929,5.929,0,0,1-1.479-1.337,3.244,3.244,0,0,1-.75-1.787,2.07,2.07,0,0,1,.7-1.723,1.61,1.61,0,0,1,1.755-.107,1.878,1.878,0,0,1,1.013,1.326,2.546,2.546,0,0,1-1.253,2.575,3.5,3.5,0,0,1-2.391.346,5.451,5.451,0,0,1-1.7-.667,8.951,8.951,0,0,1-.954-.646,2.026,2.026,0,0,1-.306-.26,2.414,2.414,0,0,1,.338.215c.218.145.539.362.974.6a5.527,5.527,0,0,0,1.679.61,3.359,3.359,0,0,0,2.267-.362,2.348,2.348,0,0,0,1.129-2.366,1.649,1.649,0,0,0-.9-1.157,1.367,1.367,0,0,0-1.491.091,1.823,1.823,0,0,0-.6,1.514,3,3,0,0,0,.7,1.637,5.7,5.7,0,0,0,1.412,1.271,3.228,3.228,0,0,0,1.828.534,2.936,2.936,0,0,0,1.743-.73,3.885,3.885,0,0,0,1.077-1.531,5.839,5.839,0,0,0,.389-1.8,6.136,6.136,0,0,0-.108-1.762,2.186,2.186,0,0,0-.838-1.354,1.378,1.378,0,0,0-1.415-.14,1.267,1.267,0,0,0-.575,1.2,2.571,2.571,0,0,0,.41,1.264,3.683,3.683,0,0,0,1.847,1.384,4.051,4.051,0,0,0,1.76.21A4.616,4.616,0,0,0,1097.241,372.9Z" transform="translate(-1084.151 -368.916)" fill="#263238"/>
            </g>
          </g>
        </g>
      </g>
    </g>
  </g>
</svg>
