<svg id="save-time" xmlns="http://www.w3.org/2000/svg" width="12.84" height="15.33" viewBox="0 0 12.84 15.33">
  <path id="Path_21161" data-name="Path 21161" d="M96.167,152.21A4.942,4.942,0,1,0,91,147.272a5.054,5.054,0,0,0,5.167,4.938Zm4.541-4.937a4.276,4.276,0,0,1-1.857,3.5l-2.222-3.365,2.976-1.18a.3.3,0,0,0,.211-.238.294.294,0,0,0-.125-.288.326.326,0,0,0-.325-.026L96.48,146.82v-3.871a4.439,4.439,0,0,1,4.228,4.324Zm-4.853-4.328v4.406l2.468,3.74a4.707,4.707,0,0,1-5.063-.48,4.222,4.222,0,0,1-1.416-4.671,4.508,4.508,0,0,1,4.01-2.993Z" transform="translate(-89.747 -138.075)" fill="#a4a4a4"/>
  <path id="Path_21162" data-name="Path 21162" d="M63.708,7.962a5.954,5.954,0,0,0-.965-2.193q-.151-.213-.321-.414l.931-.98a.291.291,0,0,0-.021-.423l-1.2-1.045a.324.324,0,0,0-.442.02l-.957,1.012a6.549,6.549,0,0,0-2.011-.75l-.068-.013.25-.718.7-.333a.3.3,0,0,0,.175-.268V.925A.95.95,0,0,0,58.8,0H56.038a.95.95,0,0,0-.966.925v.932a.3.3,0,0,0,.175.268l.7.333.251.719-.068.012a6.546,6.546,0,0,0-1.987.735l-.941-1a.324.324,0,0,0-.442-.02L51.548,3.952a.291.291,0,0,0-.022.423l.909.957q-.18.211-.34.437a5.913,5.913,0,0,0-.657,5.665.3.3,0,0,0,.117.139.325.325,0,0,0,.369-.017.292.292,0,0,0,.1-.341,5.324,5.324,0,0,1,.406-4.823,5.811,5.811,0,0,1,4.216-2.677h1.548a5.687,5.687,0,0,1,4.914,4.448,5.455,5.455,0,0,1-2.855,5.866,6,6,0,0,1-6.725-.729.324.324,0,0,0-.422.039.29.29,0,0,0,0,.4,6.417,6.417,0,0,0,1.961,1.163,6.649,6.649,0,0,0,2.35.422h0a6.734,6.734,0,0,0,1.294-.123,6.542,6.542,0,0,0,2.295-.921,6.216,6.216,0,0,0,2.326-2.7,5.9,5.9,0,0,0,.373-3.623Zm-10.825-3.1-.024.023-.656-.69.741-.642.672.707a6.393,6.393,0,0,0-.732.6Zm5.125-1.747H56.833L56.6,2.441a3.433,3.433,0,0,1,1.643,0ZM56.22,1.921,55.7,1.672V.925A.337.337,0,0,1,56.038.6H58.8a.337.337,0,0,1,.34.326v.747l-.523.25a4.04,4.04,0,0,0-2.4,0Zm5.047,2.338.672-.707.741.642-.672.707Z" transform="translate(-50.999)" fill="#a4a4a4"/>
  <path id="Path_21163" data-name="Path 21163" d="M131.314,297.38a.3.3,0,1,0,.314.3A.307.307,0,0,0,131.314,297.38Z" transform="translate(-128.493 -288.477)" fill="#a4a4a4"/>
  <path id="Path_21164" data-name="Path 21164" d="M246.383,412.779a.3.3,0,1,0-.314-.3A.307.307,0,0,0,246.383,412.779Z" transform="translate(-239.96 -399.84)" fill="#a4a4a4"/>
  <path id="Path_21165" data-name="Path 21165" d="M361,297.29v.007a.314.314,0,0,0,.628,0v-.009a.314.314,0,0,0-.628,0Z" transform="translate(-351.291 -288.099)" fill="#a4a4a4"/>
  <ellipse id="Ellipse_3326" data-name="Ellipse 3326" cx="0.313" cy="0.299" rx="0.313" ry="0.299" transform="translate(1.08 12.211)" fill="#a4a4a4"/>
</svg>
