<svg xmlns="http://www.w3.org/2000/svg" width="19.13" height="19" viewBox="0 0 19.13 19">
  <g id="Group_9" data-name="Group 9" transform="translate(-2114 -390)">
    <g id="Layer_2" data-name="Layer 2" transform="translate(2114 390)">
      <g id="Comment">
        <path id="Path_10" data-name="Path 10" d="M16,0H3.126A3.126,3.126,0,0,0,0,3.126v8.287a3.126,3.126,0,0,0,3.126,3.126H4.1L2.808,17.6a.957.957,0,1,0,1.783.643l1.821-4.274a.244.244,0,0,1,0-.027v-.027l.019-.065a.553.553,0,0,1,.027-.1.938.938,0,0,0,0-.1.383.383,0,0,0,0-.065.942.942,0,0,0,0-.107v-.084a.8.8,0,0,0-.031-.088.344.344,0,0,0-.031-.088.49.49,0,0,0-.042-.077.593.593,0,0,0-.046-.084l-.061-.073a.467.467,0,0,0-.057-.065.532.532,0,0,0-.073-.057.344.344,0,0,0-.073-.057l-.073-.042a.788.788,0,0,0-.1-.046H5.808l-.092-.088H3.126a1.213,1.213,0,0,1-1.213-1.213V3.126A1.213,1.213,0,0,1,3.126,1.913H16a1.213,1.213,0,0,1,1.213,1.213v8.287A1.213,1.213,0,0,1,16,12.626H9.374a.957.957,0,1,0,0,1.913H16a3.126,3.126,0,0,0,3.126-3.126V3.126A3.126,3.126,0,0,0,16,0Z" fill="#15232e"/>
        <path id="Path_11" data-name="Path 11" d="M18.8,12.957A.957.957,0,0,0,17.843,12H10.957a.957.957,0,1,0,0,1.913h6.887A.957.957,0,0,0,18.8,12.957Z" transform="translate(-6.174 -7.409)" fill="#15232e"/>
        <rect id="Rectangle_14" data-name="Rectangle 14" width="6.135" height="2.301" rx="1.15" transform="translate(4.197 7.669)" fill="#00c569"/>
      </g>
    </g>
  </g>
</svg>
