<svg xmlns="http://www.w3.org/2000/svg" width="68.413" height="54.39" viewBox="0 0 68.413 54.39">
  <g id="Group_49539" data-name="Group 49539" transform="translate(10.413 9.39)">
    <g id="Group_42514" data-name="Group 42514" transform="translate(4.824 0)">
      <rect id="Rectangle_14743" data-name="Rectangle 14743" width="53" height="45" rx="6" transform="translate(0.176)" fill="#fff5e0"/>
    </g>
    <g id="Group_49540" data-name="Group 49540" transform="translate(-529 -4404.841)">
      <path id="Path_116992" data-name="Path 116992" d="M-28.413-16.464a20.635,20.635,0,0,0,3.36,11.676A12.644,12.644,0,0,0-14.385.42C-4.935.42-.231-7.938-.231-16.632c0-6.006-1.932-11.13-6.3-14.322a12.391,12.391,0,0,0-7.728-2.436,12.826,12.826,0,0,0-7.9,2.478,14.361,14.361,0,0,0-4.788,6.174A22.664,22.664,0,0,0-28.413-16.464Zm7.518-4.7A9.629,9.629,0,0,1-18.5-25.116a5.555,5.555,0,0,1,4.158-1.764,5.555,5.555,0,0,1,4.158,1.764c3.318,3.318,3.7,8.82,2.394,13.23a9.921,9.921,0,0,1-2.394,4.032,5.675,5.675,0,0,1-4.158,1.722A5.675,5.675,0,0,1-18.5-7.854C-21.819-11.256-22.2-16.884-20.895-21.168ZM4.1,0H28.161V-6.216h-14.2l5.544-4.41A37.552,37.552,0,0,0,26.1-16.8a9.463,9.463,0,0,0,1.89-5.964,9.933,9.933,0,0,0-3.192-7.56,11.7,11.7,0,0,0-8.484-3.066,14.338,14.338,0,0,0-7.56,2.016,9.976,9.976,0,0,0-4.452,5.838l6.258,2.646c1.092-2.73,2.982-4.116,5.712-4.116a4.462,4.462,0,0,1,4.7,4.284A5.176,5.176,0,0,1,19.8-19.4a29.111,29.111,0,0,1-4.242,4.032L4.1-5.964Z" transform="translate(547 4428.84)" fill="#ffab00"/>
    </g>
  </g>
</svg>
