<svg xmlns="http://www.w3.org/2000/svg" viewBox="0 0 22 21" width="22" height="21">
	<style>
		tspan { white-space:pre }
		.shp0 { fill: #ffffff } 
	</style>
	<g id="Layer_2">
		<g id="Back_2">
			<path id="Path_19083" class="shp0" d="M1.09 10.11L20.54 10.11C20.56 10.11 20.58 10.11 20.59 10.11C20.61 10.11 20.63 10.12 20.65 10.12C20.67 10.12 20.68 10.12 20.7 10.12C20.72 10.13 20.74 10.13 20.75 10.13L20.84 10.16C20.85 10.16 20.86 10.17 20.87 10.17C20.88 10.17 20.89 10.17 20.9 10.18C20.91 10.18 20.92 10.18 20.93 10.19C20.94 10.19 20.95 10.19 20.96 10.2C20.96 10.2 20.97 10.21 20.98 10.21C20.99 10.21 21 10.22 21.01 10.22C21.02 10.23 21.02 10.23 21.03 10.24C21.04 10.24 21.05 10.25 21.06 10.25C21.06 10.25 21.07 10.26 21.08 10.26C21.09 10.26 21.09 10.27 21.1 10.27C21.11 10.27 21.11 10.28 21.12 10.28C21.13 10.28 21.14 10.29 21.14 10.29C21.17 10.31 21.2 10.33 21.23 10.36C21.26 10.38 21.28 10.4 21.31 10.43C21.33 10.45 21.36 10.48 21.38 10.51C21.4 10.53 21.42 10.56 21.44 10.59L21.49 10.67C21.49 10.68 21.5 10.69 21.5 10.7C21.51 10.71 21.51 10.72 21.52 10.72C21.52 10.73 21.53 10.74 21.53 10.75C21.53 10.76 21.54 10.77 21.54 10.78C21.54 10.78 21.54 10.79 21.54 10.8C21.54 10.81 21.54 10.82 21.55 10.83C21.55 10.84 21.55 10.85 21.56 10.86C21.56 10.87 21.57 10.88 21.58 10.88C21.58 10.89 21.58 10.9 21.58 10.91C21.59 10.91 21.59 10.92 21.59 10.93C21.59 10.94 21.6 10.94 21.6 10.95C21.6 10.96 21.6 10.97 21.6 10.97C21.61 11.01 21.62 11.05 21.62 11.08C21.62 11.12 21.63 11.15 21.63 11.19C21.63 11.23 21.62 11.26 21.62 11.3C21.62 11.33 21.61 11.37 21.6 11.41C21.6 11.41 21.6 11.42 21.6 11.43C21.6 11.44 21.59 11.45 21.59 11.46C21.59 11.46 21.59 11.47 21.58 11.48C21.58 11.49 21.58 11.5 21.58 11.51C21.58 11.52 21.57 11.52 21.57 11.53C21.57 11.54 21.57 11.55 21.56 11.56C21.56 11.57 21.56 11.58 21.55 11.59C21.55 11.6 21.55 11.61 21.54 11.61C21.53 11.65 21.51 11.68 21.49 11.71L21.44 11.8C21.43 11.81 21.42 11.83 21.41 11.84C21.4 11.85 21.39 11.87 21.38 11.88C21.37 11.9 21.36 11.91 21.35 11.92C21.33 11.94 21.32 11.95 21.31 11.96L12.58 20.68C12.38 20.88 12.1 20.99 11.82 20.99C11.53 20.99 11.26 20.88 11.05 20.68C10.85 20.48 10.74 20.2 10.74 19.92C10.74 19.63 10.85 19.35 11.05 19.15L17.94 12.27L1.08 12.27C0.79 12.27 0.52 12.15 0.32 11.95C0.11 11.75 0 11.47 0 11.19C0 10.9 0.11 10.63 0.32 10.42C0.52 10.22 0.79 10.11 1.08 10.11L1.09 10.11Z" />
			<path id="Rectangle_2517" class="shp0" d="M17.62 8.93L10.97 2.29C10.55 1.87 10.55 1.19 10.97 0.76L10.97 0.76C11.4 0.34 12.08 0.34 12.5 0.76L19.14 7.4C19.57 7.83 19.57 8.51 19.14 8.93L19.14 8.93C18.72 9.35 18.04 9.35 17.62 8.93Z" />
		</g>
	</g>
</svg>